<svg xmlns="http://www.w3.org/2000/svg" xmlns:xlink="http://www.w3.org/1999/xlink" width="1080" height="459" viewBox="0 0 1080 459">
  <defs>
    <linearGradient id="linear-gradient" x1="0.274" y1="0.064" x2="0.791" y2="0.959" gradientUnits="objectBoundingBox">
      <stop offset="0" stop-color="#1d38a6"/>
      <stop offset="1" stop-color="#8bbef5"/>
    </linearGradient>
  </defs>
  <g id="PPC" transform="translate(-420 -311)">
    <g id="Group_513" data-name="Group 513" transform="translate(420 347.521)">
      <path id="Path_3175" data-name="Path 3175" d="M148.867,282.335a18.7,18.7,0,0,1-9.352-2.5l-77.231-44.59a18.755,18.755,0,0,1-9.352-16.2V129.872a18.757,18.757,0,0,1,9.352-16.2l63.1-36.43L127.3,80.56,64.2,116.991a14.917,14.917,0,0,0-7.437,12.882V219.05A14.917,14.917,0,0,0,64.2,231.932l77.231,44.589a14.914,14.914,0,0,0,14.873,0l15.358-8.866a18.819,18.819,0,0,1,16.475-1.1l18.238,7.513,2.613-19.552a18.823,18.823,0,0,1,9.187-13.72l15.357-8.866a14.915,14.915,0,0,0,7.438-12.882V129.872a14.915,14.915,0,0,0-7.438-12.882l-63.1-36.431,1.915-3.317,63.1,36.431a18.755,18.755,0,0,1,9.353,16.2V219.05a18.752,18.752,0,0,1-9.353,16.2l-15.357,8.868a14.964,14.964,0,0,0-7.305,10.91l-3.271,24.481L186.679,270.1a14.965,14.965,0,0,0-13.1.871l-15.358,8.868A18.7,18.7,0,0,1,148.867,282.335Z" transform="translate(-52.933 -77.243)" fill="url(#linear-gradient)"/>
    </g>
    <g id="Group_524" data-name="Group 524" transform="translate(488.895 311)">
      <path id="Path_3263" data-name="Path 3263" d="M133.937,102.714a27.039,27.039,0,1,1,27.039-27.039A27.069,27.069,0,0,1,133.937,102.714Zm0-50.248a23.209,23.209,0,1,0,23.209,23.21A23.236,23.236,0,0,0,133.937,52.466Z" transform="translate(-106.898 -48.636)" fill="url(#linear-gradient)"/>
    </g>
    <g id="Group_525" data-name="Group 525" transform="translate(509.318 325.629)">
      <path id="Path_3264" data-name="Path 3264" d="M132.973,60.095V85.473h-4.712V64.046h-5.366V60.095Z" transform="translate(-122.895 -60.095)" fill="#303e45"/>
    </g>
    <g id="Group_553" data-name="Group 553" transform="translate(642.033 347.521)">
      <path id="Path_3371" data-name="Path 3371" d="M322.839,282.335a18.7,18.7,0,0,1-9.352-2.5l-77.231-44.59a18.752,18.752,0,0,1-9.352-16.2V129.872a18.754,18.754,0,0,1,9.352-16.2l63.1-36.431,1.915,3.317-63.1,36.431a14.917,14.917,0,0,0-7.437,12.882V219.05a14.917,14.917,0,0,0,7.437,12.882L315.4,276.521a14.917,14.917,0,0,0,14.873,0l15.358-8.866a18.821,18.821,0,0,1,16.477-1.1l18.238,7.513,2.613-19.552a18.813,18.813,0,0,1,9.187-13.72l15.357-8.866a14.917,14.917,0,0,0,7.437-12.882V129.872a14.917,14.917,0,0,0-7.437-12.882L344.4,80.56l1.915-3.317,63.1,36.431a18.757,18.757,0,0,1,9.352,16.2V219.05a18.753,18.753,0,0,1-9.352,16.2l-15.357,8.868a14.962,14.962,0,0,0-7.306,10.91l-3.271,24.481L360.651,270.1a14.965,14.965,0,0,0-13.1.871l-15.358,8.868A18.7,18.7,0,0,1,322.839,282.335Z" transform="translate(-226.905 -77.243)" fill="url(#linear-gradient)"/>
    </g>
    <g id="Group_554" data-name="Group 554" transform="translate(710.917 311)">
      <path id="Path_3372" data-name="Path 3372" d="M307.909,102.714a27.039,27.039,0,1,1,27.039-27.039A27.07,27.07,0,0,1,307.909,102.714Zm0-50.248a23.209,23.209,0,1,0,23.209,23.21A23.236,23.236,0,0,0,307.909,52.466Z" transform="translate(-280.869 -48.636)" fill="url(#linear-gradient)"/>
    </g>
    <g id="Group_555" data-name="Group 555" transform="translate(727.441 325.629)">
      <path id="Path_3373" data-name="Path 3373" d="M311.542,72.965a6.851,6.851,0,0,1,1.849,4.895,7.5,7.5,0,0,1-1.123,4.024,7.722,7.722,0,0,1-3.39,2.881,12.9,12.9,0,0,1-5.529,1.07,17.617,17.617,0,0,1-5.238-.78,13.362,13.362,0,0,1-4.3-2.156l2.031-3.661a10.236,10.236,0,0,0,3.354,1.831,12.6,12.6,0,0,0,4.079.67,6.615,6.615,0,0,0,3.933-1.033,3.286,3.286,0,0,0,1.431-2.81,3.246,3.246,0,0,0-1.36-2.773,7.025,7.025,0,0,0-4.15-1H300.81V70.9l5.765-6.852h-11.53V60.095H312.34v3.153l-6.164,7.324A8.554,8.554,0,0,1,311.542,72.965Z" transform="translate(-293.813 -60.095)" fill="#303e45"/>
    </g>
    <g id="Group_574" data-name="Group 574" transform="translate(864.066 347.521)">
      <path id="Path_3458" data-name="Path 3458" d="M496.81,282.335a18.709,18.709,0,0,1-9.352-2.5l-77.229-44.59a18.753,18.753,0,0,1-9.353-16.2V129.872a18.755,18.755,0,0,1,9.353-16.2l63.1-36.43,1.915,3.316-63.1,36.431a14.915,14.915,0,0,0-7.438,12.882V219.05a14.915,14.915,0,0,0,7.438,12.882l77.229,44.589a14.92,14.92,0,0,0,14.874,0l15.358-8.868a18.817,18.817,0,0,1,16.477-1.1l18.238,7.513,2.613-19.552a18.816,18.816,0,0,1,9.183-13.719l15.361-8.869a14.912,14.912,0,0,0,7.435-12.88V129.872a14.914,14.914,0,0,0-7.437-12.882l-63.1-36.432,1.915-3.316,63.1,36.431a18.755,18.755,0,0,1,9.352,16.2V219.05a18.755,18.755,0,0,1-9.35,16.2l-15.361,8.869a14.962,14.962,0,0,0-7.3,10.909l-3.272,24.481L534.625,270.1a14.985,14.985,0,0,0-13.1.869l-15.358,8.869A18.7,18.7,0,0,1,496.81,282.335Z" transform="translate(-400.876 -77.243)" fill="url(#linear-gradient)"/>
    </g>
    <g id="Group_575" data-name="Group 575" transform="translate(932.961 311)">
      <path id="Path_3459" data-name="Path 3459" d="M481.879,102.714a27.039,27.039,0,1,1,27.04-27.039A27.069,27.069,0,0,1,481.879,102.714Zm0-50.248a23.209,23.209,0,1,0,23.21,23.21A23.236,23.236,0,0,0,481.879,52.466Z" transform="translate(-454.841 -48.636)" fill="url(#linear-gradient)"/>
    </g>
    <g id="Group_576" data-name="Group 576" transform="translate(949.886 325.629)">
      <path id="Path_3460" data-name="Path 3460" d="M485.1,72a6.914,6.914,0,0,1,2.575,5.675,7.545,7.545,0,0,1-4.5,7.069,12.677,12.677,0,0,1-5.547,1.088,17.791,17.791,0,0,1-5.256-.78A12.876,12.876,0,0,1,468.1,82.9l1.994-3.661a10.691,10.691,0,0,0,3.39,1.831,12.6,12.6,0,0,0,4.078.67,6.62,6.62,0,0,0,3.935-1.033,3.576,3.576,0,0,0-.109-5.8q-1.543-1-5.276-1h-6.127l1.306-13.812h14.9v3.951H475.275l-.544,5.874h2.43Q482.527,69.92,485.1,72Z" transform="translate(-468.098 -60.095)" fill="#303e45"/>
    </g>
    <g id="Group_588" data-name="Group 588" transform="translate(1086.101 347.521)">
      <path id="Path_3544" data-name="Path 3544" d="M670.782,282.335a18.7,18.7,0,0,1-9.352-2.5L584.2,235.247a18.751,18.751,0,0,1-9.352-16.2V129.872a18.753,18.753,0,0,1,9.352-16.2l63.1-36.431,1.915,3.317-63.1,36.431a14.914,14.914,0,0,0-7.437,12.882V219.05a14.913,14.913,0,0,0,7.437,12.88l77.229,44.59a14.917,14.917,0,0,0,14.873,0l15.362-8.869a18.808,18.808,0,0,1,16.474-1.1l18.24,7.516,2.613-19.555a18.814,18.814,0,0,1,9.18-13.718l15.361-8.869a14.915,14.915,0,0,0,7.437-12.88V129.872a14.918,14.918,0,0,0-7.438-12.882l-63.1-36.431,1.915-3.317,63.1,36.431a18.755,18.755,0,0,1,9.353,16.2V219.05a18.755,18.755,0,0,1-9.352,16.2L742,244.116a14.969,14.969,0,0,0-7.3,10.909l-3.271,24.483L708.6,270.1a14.972,14.972,0,0,0-13.1.869l-15.362,8.87A18.706,18.706,0,0,1,670.782,282.335Z" transform="translate(-574.849 -77.243)" fill="url(#linear-gradient)"/>
    </g>
    <g id="Group_589" data-name="Group 589" transform="translate(1155.003 311)">
      <path id="Path_3545" data-name="Path 3545" d="M655.852,102.714a27.039,27.039,0,1,1,27.04-27.039A27.07,27.07,0,0,1,655.852,102.714Zm0-50.248a23.209,23.209,0,1,0,23.21,23.21A23.237,23.237,0,0,0,655.852,52.466Z" transform="translate(-628.812 -48.636)" fill="url(#linear-gradient)"/>
    </g>
    <g id="Group_590" data-name="Group 590" transform="translate(1172.037 325.629)">
      <path id="Path_3546" data-name="Path 3546" d="M661.876,60.095v3.153l-9.86,22.224h-5.039l9.534-21.391h-9.969V68.4h-4.388v-8.3Z" transform="translate(-642.154 -60.095)" fill="#303e45"/>
    </g>
    <g id="Group_592" data-name="Group 592" transform="translate(1308.131 347.521)">
      <path id="Path_3547" data-name="Path 3547" d="M844.754,282.335a18.7,18.7,0,0,1-9.352-2.5l-77.232-44.59a18.754,18.754,0,0,1-9.352-16.2V129.872a18.757,18.757,0,0,1,9.352-16.2l63.1-36.431,1.915,3.317-63.1,36.431a14.92,14.92,0,0,0-7.437,12.882V219.05a14.92,14.92,0,0,0,7.437,12.882l77.232,44.589a14.917,14.917,0,0,0,14.873,0l77.231-44.589a14.917,14.917,0,0,0,7.437-12.882V129.872a14.917,14.917,0,0,0-7.437-12.882L866.32,80.56l1.915-3.317,63.1,36.431a18.754,18.754,0,0,1,9.351,16.2V219.05a18.752,18.752,0,0,1-9.351,16.2l-77.231,44.59A18.719,18.719,0,0,1,844.754,282.335Z" transform="translate(-748.819 -77.243)" fill="url(#linear-gradient)"/>
    </g>
    <g id="Group_608" data-name="Group 608" transform="translate(1377.026 311)">
      <path id="Path_3632" data-name="Path 3632" d="M829.824,102.714a27.039,27.039,0,1,1,27.04-27.039A27.07,27.07,0,0,1,829.824,102.714Zm0-50.248a23.209,23.209,0,1,0,23.21,23.21A23.236,23.236,0,0,0,829.824,52.466Z" transform="translate(-802.784 -48.636)" fill="url(#linear-gradient)"/>
    </g>
    <g id="Group_609" data-name="Group 609" transform="translate(1393.57 325.266)">
      <path id="Path_3633" data-name="Path 3633" d="M833.126,63.074q2.884,3.261,2.883,9.353a15.8,15.8,0,0,1-1.559,7.306,10.821,10.821,0,0,1-4.368,4.6,13.084,13.084,0,0,1-6.508,1.577,15.658,15.658,0,0,1-3.681-.416,10.009,10.009,0,0,1-2.991-1.215l1.741-3.553a8.651,8.651,0,0,0,4.822,1.233,7.39,7.39,0,0,0,5.727-2.248q2.066-2.248,2.067-6.489a7.345,7.345,0,0,1-2.864,1.939,10.8,10.8,0,0,1-3.916.67,10.221,10.221,0,0,1-4.5-.96,7.4,7.4,0,0,1-3.118-2.737,7.494,7.494,0,0,1-1.124-4.1,7.676,7.676,0,0,1,1.233-4.333,8.156,8.156,0,0,1,3.335-2.881,10.7,10.7,0,0,1,4.713-1.016Q830.245,59.81,833.126,63.074ZM829.1,70.906a3.941,3.941,0,0,0,1.431-3.119,3.885,3.885,0,0,0-1.4-3.063,5.683,5.683,0,0,0-3.861-1.214,5.331,5.331,0,0,0-3.59,1.177,4.279,4.279,0,0,0,0,6.29,6.344,6.344,0,0,0,7.415-.071Z" transform="translate(-815.743 -59.81)" fill="#303e45"/>
    </g>
    <g id="Group_622" data-name="Group 622" transform="translate(531.052 529.122)">
      <path id="Path_3721" data-name="Path 3721" d="M259.61,424.492l-1.915-3.317L320.52,384.9a14.914,14.914,0,0,0,7.437-12.882V282.846a14.917,14.917,0,0,0-7.437-12.882l-11.56-6.674a18.82,18.82,0,0,1-9.187-13.72l-2.612-19.552-18.24,7.514a18.561,18.561,0,0,1-16.468-1.092l-19.169-11.066a14.9,14.9,0,0,0-14.868,0l-77.231,44.589a14.917,14.917,0,0,0-7.437,12.882v89.176a14.914,14.914,0,0,0,7.437,12.882l62.825,36.271-1.915,3.317L149.271,388.22a18.754,18.754,0,0,1-9.352-16.2V282.846a18.76,18.76,0,0,1,9.352-16.2L226.5,222.06a18.746,18.746,0,0,1,18.7,0l19.169,11.067a14.763,14.763,0,0,0,13.095.866l22.836-9.408,3.271,24.481a14.961,14.961,0,0,0,7.305,10.909l11.56,6.674a18.76,18.76,0,0,1,9.352,16.2v89.176a18.754,18.754,0,0,1-9.352,16.2Z" transform="translate(-139.919 -219.561)" fill="url(#linear-gradient)"/>
    </g>
    <g id="Group_623" data-name="Group 623" transform="translate(599.896 715.922)">
      <path id="Path_3722" data-name="Path 3722" d="M220.923,419.957a27.039,27.039,0,1,1,27.04-27.039A27.07,27.07,0,0,1,220.923,419.957Zm0-50.248a23.209,23.209,0,1,0,23.21,23.21A23.236,23.236,0,0,0,220.923,369.709Z" transform="translate(-193.883 -365.879)" fill="url(#linear-gradient)"/>
    </g>
    <g id="Group_624" data-name="Group 624" transform="translate(616.672 730.188)">
      <path id="Path_3723" data-name="Path 3723" d="M226.712,398.806v3.988H208.005V399.64l10.079-9.571a11.038,11.038,0,0,0,2.3-2.846,5.426,5.426,0,0,0,.6-2.41,3.254,3.254,0,0,0-1.195-2.719,5.6,5.6,0,0,0-3.517-.942,7.1,7.1,0,0,0-5.945,2.645l-3.3-2.537a9.778,9.778,0,0,1,4.007-3.1,13.866,13.866,0,0,1,5.637-1.106,10.311,10.311,0,0,1,6.6,1.957,6.44,6.44,0,0,1,2.466,5.33,8.837,8.837,0,0,1-.871,3.879,15.115,15.115,0,0,1-3.335,4.133l-6.78,6.454Z" transform="translate(-207.026 -377.054)" fill="#303e45"/>
    </g>
    <g id="Group_640" data-name="Group 640" transform="translate(753.05 529.122)">
      <path id="Path_3803" data-name="Path 3803" d="M433.581,424.493l-1.915-3.317L494.491,384.9a14.912,14.912,0,0,0,7.438-12.882V282.846a14.915,14.915,0,0,0-7.438-12.882l-11.56-6.674a18.815,18.815,0,0,1-9.186-13.719l-2.612-19.553-18.241,7.514a18.823,18.823,0,0,1-16.475-1.1l-19.155-11.06a14.922,14.922,0,0,0-14.874,0l-77.229,44.589a14.917,14.917,0,0,0-7.437,12.882v89.176a14.914,14.914,0,0,0,7.437,12.882l62.825,36.271-1.915,3.317L323.243,388.22a18.754,18.754,0,0,1-9.352-16.2V282.846a18.76,18.76,0,0,1,9.352-16.2l77.229-44.588a18.749,18.749,0,0,1,18.7,0l19.155,11.06a14.978,14.978,0,0,0,13.1.871l22.837-9.408,3.271,24.483a14.96,14.96,0,0,0,7.3,10.908l11.56,6.674a18.759,18.759,0,0,1,9.353,16.2v89.176a18.752,18.752,0,0,1-9.353,16.2Z" transform="translate(-313.891 -219.56)" fill="url(#linear-gradient)"/>
    </g>
    <g id="Group_641" data-name="Group 641" transform="translate(821.939 715.922)">
      <path id="Path_3804" data-name="Path 3804" d="M394.895,419.957a27.039,27.039,0,1,1,27.039-27.039A27.07,27.07,0,0,1,394.895,419.957Zm0-50.248a23.209,23.209,0,1,0,23.209,23.21A23.235,23.235,0,0,0,394.895,369.709Z" transform="translate(-367.855 -365.879)" fill="url(#linear-gradient)"/>
    </g>
    <g id="Group_642" data-name="Group 642" transform="translate(837.902 730.55)">
      <path id="Path_3805" data-name="Path 3805" d="M403.345,396.95h-4.5v5.765h-4.568V396.95H380.359v-3.262l12.509-16.352h5.039l-11.782,15.626h8.3V387.85h4.422v5.113h4.5Z" transform="translate(-380.359 -377.337)" fill="#303e45"/>
    </g>
    <g id="Group_647" data-name="Group 647" transform="translate(1197.08 529.122)">
      <path id="Path_3887" data-name="Path 3887" d="M734.012,424.493,671.186,388.22a18.757,18.757,0,0,1-9.352-16.2V282.845a18.76,18.76,0,0,1,9.352-16.2l77.229-44.588a18.752,18.752,0,0,1,18.7,0l19.156,11.06a14.975,14.975,0,0,0,13.1.871l22.836-9.408,3.271,24.481a14.975,14.975,0,0,0,7.306,10.91l11.559,6.673a18.758,18.758,0,0,1,9.351,16.2v89.176a18.752,18.752,0,0,1-9.351,16.2l-62.825,36.271-1.915-3.317L842.434,384.9a14.914,14.914,0,0,0,7.437-12.882V282.845a14.917,14.917,0,0,0-7.437-12.882l-11.559-6.673a18.822,18.822,0,0,1-9.187-13.72l-2.612-19.553-18.24,7.514a18.822,18.822,0,0,1-16.475-1.1L765.2,225.375a14.919,14.919,0,0,0-14.874,0L673.1,269.964a14.917,14.917,0,0,0-7.437,12.882v89.176A14.914,14.914,0,0,0,673.1,384.9l62.826,36.273Z" transform="translate(-661.834 -219.561)" fill="url(#linear-gradient)"/>
    </g>
    <g id="Group_648" data-name="Group 648" transform="translate(1266.024 715.922)">
      <path id="Path_3888" data-name="Path 3888" d="M742.838,419.957a27.039,27.039,0,1,1,27.038-27.039A27.069,27.069,0,0,1,742.838,419.957Zm0-50.248a23.209,23.209,0,1,0,23.208,23.21A23.235,23.235,0,0,0,742.838,369.709Z" transform="translate(-715.799 -365.879)" fill="url(#linear-gradient)"/>
    </g>
    <g id="Group_649" data-name="Group 649" transform="translate(1282.697 730.188)">
      <path id="Path_3889" data-name="Path 3889" d="M748.526,391.9a6.178,6.178,0,0,1,1.07,3.607,6.648,6.648,0,0,1-1.288,4.061,8.04,8.04,0,0,1-3.644,2.663,14.9,14.9,0,0,1-5.474.926,14.748,14.748,0,0,1-5.456-.926,7.925,7.925,0,0,1-3.607-2.663,6.7,6.7,0,0,1-1.27-4.061,6.24,6.24,0,0,1,1.052-3.607,7.188,7.188,0,0,1,3.009-2.447,6.059,6.059,0,0,1-2.339-2.193,5.977,5.977,0,0,1-.816-3.137,6.119,6.119,0,0,1,1.178-3.734,7.534,7.534,0,0,1,3.318-2.465,14.52,14.52,0,0,1,9.9,0,7.667,7.667,0,0,1,3.335,2.465,6.053,6.053,0,0,1,1.2,3.734,5.784,5.784,0,0,1-.835,3.118,6.439,6.439,0,0,1-2.393,2.212A7.3,7.3,0,0,1,748.526,391.9Zm-5.2,6.47a3.7,3.7,0,0,0,0-5.983,6.991,6.991,0,0,0-4.133-1.086,6.824,6.824,0,0,0-4.1,1.086,3.754,3.754,0,0,0,0,5.983,6.815,6.815,0,0,0,4.1,1.088A6.982,6.982,0,0,0,743.322,398.371Zm-7.631-16.676a3.306,3.306,0,0,0,0,5.238,5.72,5.72,0,0,0,3.5.96,5.87,5.87,0,0,0,3.553-.96,3.268,3.268,0,0,0-.018-5.238,5.973,5.973,0,0,0-3.535-.943A5.8,5.8,0,0,0,735.691,381.695Z" transform="translate(-728.856 -377.054)" fill="#303e45"/>
    </g>
    <g id="Group_672" data-name="Group 672" transform="translate(975.082 529.122)">
      <path id="Path_3978" data-name="Path 3978" d="M607.552,424.493l-1.915-3.317L668.463,384.9a14.914,14.914,0,0,0,7.437-12.882V282.845a14.917,14.917,0,0,0-7.437-12.882l-11.56-6.673a18.822,18.822,0,0,1-9.186-13.722L645.1,230.017l-18.24,7.514a18.819,18.819,0,0,1-16.475-1.1l-19.156-11.06a14.917,14.917,0,0,0-14.873,0l-77.231,44.589a14.92,14.92,0,0,0-7.437,12.882v89.176a14.916,14.916,0,0,0,7.437,12.882l62.826,36.273-1.915,3.317L497.214,388.22a18.757,18.757,0,0,1-9.352-16.2V282.845a18.76,18.76,0,0,1,9.352-16.2l77.231-44.588a18.749,18.749,0,0,1,18.7,0l19.156,11.06a14.978,14.978,0,0,0,13.1.871l22.834-9.408,3.272,24.481a14.967,14.967,0,0,0,7.305,10.91l11.56,6.673a18.757,18.757,0,0,1,9.352,16.2v89.176a18.754,18.754,0,0,1-9.352,16.2Z" transform="translate(-487.862 -219.561)" fill="url(#linear-gradient)"/>
    </g>
    <g id="Group_673" data-name="Group 673" transform="translate(1043.982 715.922)">
      <path id="Path_3979" data-name="Path 3979" d="M568.867,419.957A27.039,27.039,0,1,1,595.9,392.919,27.07,27.07,0,0,1,568.867,419.957Zm0-50.248a23.209,23.209,0,1,0,23.207,23.21A23.235,23.235,0,0,0,568.867,369.709Z" transform="translate(-541.827 -365.879)" fill="url(#linear-gradient)"/>
    </g>
    <g id="Group_674" data-name="Group 674" transform="translate(1061.251 730.188)">
      <path id="Path_3980" data-name="Path 3980" d="M571.378,388.092a7.409,7.409,0,0,1,3.118,2.738,7.493,7.493,0,0,1,1.124,4.1,7.684,7.684,0,0,1-1.232,4.332,8.162,8.162,0,0,1-3.336,2.883,10.72,10.72,0,0,1-4.712,1.015q-5.222,0-8.1-3.263t-2.883-9.354a15.792,15.792,0,0,1,1.56-7.3,10.8,10.8,0,0,1,4.369-4.6,13.064,13.064,0,0,1,6.508-1.577,15.584,15.584,0,0,1,3.679.416,10.034,10.034,0,0,1,2.99,1.214l-1.74,3.553A8.657,8.657,0,0,0,567.9,381a7.4,7.4,0,0,0-5.73,2.248q-2.066,2.248-2.066,6.489a7.357,7.357,0,0,1,2.863-1.938,10.811,10.811,0,0,1,3.917-.672A10.245,10.245,0,0,1,571.378,388.092Zm-1.7,10.189a4.281,4.281,0,0,0,0-6.291,6.345,6.345,0,0,0-7.414.073,3.939,3.939,0,0,0-1.432,3.118,3.891,3.891,0,0,0,1.4,3.064,5.69,5.69,0,0,0,3.862,1.214A5.331,5.331,0,0,0,569.674,398.281Z" transform="translate(-555.352 -377.054)" fill="#303e45"/>
    </g>
    <text id="Key_word_research" data-name="Key word
research" transform="translate(515.814 440.807)" fill="#1e39a7" font-size="18" font-family="Montserrat-SemiBold, Montserrat" font-weight="600" letter-spacing="0.08em"><tspan x="-50.067" y="0">Key Word</tspan><tspan x="-47.817" y="30">Research</tspan></text>
    <text id="aD_creation" data-name="aD
creation" transform="translate(627.324 622.807)" fill="#1e39a7" font-size="18" font-family="Montserrat-SemiBold, Montserrat" font-weight="600" letter-spacing="0.08em"><tspan x="-13.599" y="0">Ad</tspan><tspan x="-44.586" y="30">Creation</tspan></text>
    <text id="landing_page_development" data-name="landing page 
development" transform="translate(737.967 440.807)" fill="#1e39a7" font-size="18" font-family="Montserrat-SemiBold, Montserrat" font-weight="600" letter-spacing="0.08em"><tspan x="-75.708" y="0">Landing Page </tspan><tspan x="-70.488" y="30">Development</tspan></text>
    <text id="account_set_up" data-name="account 
set up" transform="translate(849.896 622.807)" fill="#1e39a7" font-size="18" font-family="Montserrat-SemiBold, Montserrat" font-weight="600" letter-spacing="0.08em"><tspan x="-46.449" y="0">Account </tspan><tspan x="-34.434" y="30">Set Up</tspan></text>
    <text id="tracking_installation_and_testing" data-name="tracking 
installation
and testing" transform="translate(960.396 425.807)" fill="#1e39a7" font-size="18" font-family="Montserrat-SemiBold, Montserrat" font-weight="600" letter-spacing="0.08em"><tspan x="-48.681" y="0">Tracking </tspan><tspan x="-59.922" y="30">Installation</tspan><tspan x="-62.847" y="60">And Testing</tspan></text>
    <text id="campaign_launch" data-name="campaign 
launch" transform="translate(1071.016 622.807)" fill="#1e39a7" font-size="18" font-family="Montserrat-SemiBold, Montserrat" font-weight="600" letter-spacing="0.08em"><tspan x="-56.268" y="0">Campaign </tspan><tspan x="-38.187" y="30">Launch</tspan></text>
    <text id="monitor_performance" data-name="monitor 
performance" transform="translate(1182.043 440.807)" fill="#1e39a7" font-size="18" font-family="Montserrat-SemiBold, Montserrat" font-weight="600" letter-spacing="0.08em"><tspan x="-43.929" y="0">Monitor </tspan><tspan x="-67.698" y="30">Performance</tspan></text>
    <text id="campaign_assessment" data-name="campaign 
assessment" transform="translate(1293.567 622.807)" fill="#1e39a7" font-size="18" font-family="Montserrat-SemiBold, Montserrat" font-weight="600" letter-spacing="0.08em"><tspan x="-56.268" y="0">Campaign </tspan><tspan x="-62.415" y="30">Assessment</tspan></text>
    <text id="analysis_and_feedback" data-name="analysis 
and feedback" transform="translate(1403.703 440.807)" fill="#1e39a7" font-size="18" font-family="Montserrat-SemiBold, Montserrat" font-weight="600" letter-spacing="0.08em"><tspan x="-46.224" y="0">Analysis </tspan><tspan x="-75.042" y="30">And Feedback</tspan></text>
  </g>
</svg>
