<svg xmlns="http://www.w3.org/2000/svg" xmlns:xlink="http://www.w3.org/1999/xlink" width="100" height="100" viewBox="0 0 100 100"><defs><clipPath id="b"><rect width="100" height="100"/></clipPath></defs><g id="a" clip-path="url(#b)"><rect width="100" height="100" fill="#fff"/><path d="M1643.018,79.669a11.285,11.285,0,0,1-10.6-7.509l-.391-1.1h-29.667l-.391,1.1a11.239,11.239,0,0,1-21.2,0l-.39-1.1h-12.682a.5.5,0,0,1-.5-.5V44.913a1.5,1.5,0,0,0,.026-.183l.069-.252.062-.113.016-.057,12.813-21.353a.5.5,0,0,1,.427-.241h55.957a.5.5,0,0,1,.426.239l12.77,21.283h4.022a.514.514,0,0,1,.279.085l12.912,8.607a.5.5,0,0,1,.221.416V70.561a.5.5,0,0,1-.5.5H1654.01l-.39,1.1A11.286,11.286,0,0,1,1643.018,79.669Zm0-21.522a10.261,10.261,0,1,0,10.261,10.262A10.272,10.272,0,0,0,1643.018,58.147Zm-51.653,0a10.261,10.261,0,1,0,10.261,10.262A10.273,10.273,0,0,0,1591.365,58.147Zm51.653-1a11.272,11.272,0,0,1,11.26,11.26v1.653h11.914V53.61l-12.565-8.376h-38.088v8.11a.5.5,0,0,1-1,0v-8.11h-16.717a.5.5,0,1,1,0-1h16.717V23.712h-33.653l-12.313,20.524h16.336a.5.5,0,0,1,0,1h-16.718V70.062H1580.1V68.409a11.26,11.26,0,0,1,22.521,0v1.653h29.131V68.409A11.273,11.273,0,0,1,1643.018,57.149Zm-27.479-12.913h33.051l-12.31-20.524h-20.741Z" transform="translate(-1567.192 -1.191)"/></g></svg>