<svg xmlns="http://www.w3.org/2000/svg" xmlns:xlink="http://www.w3.org/1999/xlink" width="100" height="100" viewBox="0 0 100 100"><defs><clipPath id="b"><rect width="100" height="100"/></clipPath></defs><g id="a" clip-path="url(#b)"><rect width="100" height="100" fill="#fff"/><path d="M1441.56,100.22a.369.369,0,0,1-.369-.368V52.832a.371.371,0,0,1,.19-.321l19.568-10.862a.368.368,0,0,1,.552.319V52.2l19.02-10.554a.368.368,0,0,1,.552.319V52.081l20.89-10.44a.387.387,0,0,1,.168-.04.369.369,0,0,1,.37.368V52.463h7.409l6.478-49.98a.369.369,0,0,1,.366-.32h12.406a.371.371,0,0,1,.374.32l6.489,49.98h4.8a.369.369,0,0,1,.368.369v47.02a.368.368,0,0,1-.368.368Zm.369-.737h98.525V88.46h-98.525Zm88.473-11.76h10.052V53.19h-38.322a.37.37,0,0,1-.369-.369V42.555l-20.89,10.44a.384.384,0,0,1-.167.04.37.37,0,0,1-.371-.368V42.584l-19.03,10.566a.382.382,0,0,1-.184.049.369.369,0,0,1-.368-.368V42.6L1441.929,53.05V87.723h10.052V72.294h.737V87.723h12.21V72.294h.738V87.723h12.209V72.294h.738V87.723h12.21V72.294h.737V87.723h12.21V72.294h.738V87.723h12.209V72.294h.738V87.723h12.21V72.294h.737Zm-19.746-35.249h24.62l-3.788-29.2h-17.043Zm3.885-29.941h16.851l-1.167-8.973h-14.518Zm1.262-9.721h14.3L1528.847,2.9h-11.759Z" transform="translate(-1441.192 -1.191)"/></g></svg>