<svg xmlns="http://www.w3.org/2000/svg" xmlns:xlink="http://www.w3.org/1999/xlink" width="100" height="100" viewBox="0 0 100 100"><defs><clipPath id="b"><rect width="100" height="100"/></clipPath></defs><g id="a" clip-path="url(#b)"><rect width="100" height="100" fill="#fff"/><g transform="translate(-218.191 -1.191)"><path d="M268.647,42.834c-.3,0-.423-.127-.423-.424V36.329h-6.213a.429.429,0,0,1-.424-.425c0-.3.127-.425.424-.425h6.213v-6.21c0-.3.127-.425.423-.425s.424.127.424.425v6.21h6.21c.3,0,.426.127.426.425s-.127.425-.426.425h-6.21V42.41C269.071,42.707,268.944,42.834,268.647,42.834Z"/><path d="M252.515,56.235c-.3,0-.426-.127-.426-.425a.43.43,0,0,1,.426-.424H284.26c.3,0,.424.127.424.424s-.127.425-.424.425Z"/><path d="M252.515,63.391c-.3,0-.426-.127-.426-.425s.127-.425.426-.425h31.876c.216,0,.293.229.293.425,0,.3-.127.425-.424.425Z"/><path d="M252.515,70.547c-.3,0-.426-.127-.426-.425s.127-.425.426-.425h31.876c.216,0,.293.229.293.425,0,.3-.127.425-.424.425Z"/><path d="M252.515,77.7c-.3,0-.426-.127-.426-.426s.127-.424.426-.424h31.876c.215,0,.293.219.293.424,0,.3-.127.426-.424.426Z"/><path d="M232.867,100.991a.566.566,0,0,1-.424-.424V13.526c0-.3.127-.425.424-.425H253V9.753c0-.3.127-.424.424-.424h8.163v-1.4a6.539,6.539,0,1,1,13.078,0v1.4h8.163c.3,0,.424.127.424.424V13.1h20.264c.3,0,.423.127.423.425v87.041c0,.3-.126.424-.423.424Zm.424-.85h69.8V13.951h-8.91V89.508c0,.3-.127.424-.425.424h-51.13c-.3,0-.426-.127-.426-.424V13.951h-8.91Zm9.89-11.058h50.152V13.951H283.252V18.47c0,.3-.127.425-.424.425H253.685c-.3,0-.424-.127-.424-.425V13.951h-10.08Zm10.927-71.038h28.556V10.178H274.5c-.3,0-.425-.127-.425-.425V7.932a5.565,5.565,0,0,0-5.69-5.69,5.7,5.7,0,0,0-5.692,5.69V9.753c0,.3-.127.425-.424.425h-8.163Z"/></g></g></svg>