<svg xmlns="http://www.w3.org/2000/svg" xmlns:xlink="http://www.w3.org/1999/xlink" width="100" height="100" viewBox="0 0 100 100"><defs><clipPath id="b"><rect width="100" height="100"/></clipPath></defs><g id="a" clip-path="url(#b)"><rect width="100" height="100" fill="#fff"/><g transform="translate(-110)"><path d="M153.761,75.974a1.609,1.609,0,0,1-1.6-1.611V64.155H141.943a1.6,1.6,0,0,1-1.6-1.6V50.1a1.619,1.619,0,0,1,1.6-1.621h10.219V38.259a1.6,1.6,0,0,1,1.6-1.6h12.478a1.609,1.609,0,0,1,1.6,1.611V48.5h10.2a1.611,1.611,0,0,1,1.62,1.6V62.555a1.608,1.608,0,0,1-1.6,1.6h-10.24V74.374a1.6,1.6,0,0,1-1.6,1.6Zm-12.3-12.938h11.259a.559.559,0,0,1,.559.559v11.26h13.438V63.6a.559.559,0,0,1,.559-.559h11.259V49.6h-11.28a.56.56,0,0,1-.559-.559V37.779H153.281V49.06a.56.56,0,0,1-.559.56H141.463Z"/><path d="M123.079,93.055C117.045,93.055,110,89.63,110,79.976V33.825c0-9.654,7.045-13.079,13.079-13.079h19.047V11.757c-.006-.18,0-.308,0-.437a4.609,4.609,0,0,1,4.6-4.375q.123,0,.246.006l25.968,0c.155-.006.237-.008.319-.008l.16,0a4.616,4.616,0,0,1,4.452,4.759v9.082h19.047c6.034,0,13.079,3.425,13.079,13.078V79.976c0,9.654-7.045,13.079-13.079,13.079Zm0-71.148c-2.806,0-11.96.863-11.96,11.96V79.976c0,11.1,9.154,11.96,11.96,11.96h73.842c2.806,0,11.96-.862,11.96-11.96V33.867c0-11.1-9.154-11.96-11.96-11.96Zm24-13.983a3.515,3.515,0,0,0-3.833,3.833v8.989h33.532V11.757a3.515,3.515,0,0,0-3.833-3.833Z"/></g></g></svg>