<svg xmlns="http://www.w3.org/2000/svg" xmlns:xlink="http://www.w3.org/1999/xlink" width="100" height="100" viewBox="0 0 100 100"><defs><clipPath id="b"><rect width="100" height="100"/></clipPath></defs><g id="a" clip-path="url(#b)"><rect width="100" height="100" fill="#fff"/><g transform="translate(-2082.191 -1.191)"><path d="M2135.5,37.59a.426.426,0,0,1-.426-.426v-3.7h-7.833a.426.426,0,1,1,0-.852h14.454a1.642,1.642,0,0,0,1.639-1.639v-4.13a1.641,1.641,0,0,0-1.639-1.638H2129.3a2.5,2.5,0,0,1-2.492-2.494V18.579a2.5,2.5,0,0,1,2.494-2.491h5.766v-3.7a.427.427,0,0,1,.853,0v3.7h7.833a.427.427,0,1,1,0,.853H2129.3a1.64,1.64,0,0,0-1.638,1.638v4.13a1.641,1.641,0,0,0,1.638,1.639h12.389a2.5,2.5,0,0,1,2.492,2.493v4.128a2.5,2.5,0,0,1-2.493,2.491h-5.767v3.7A.427.427,0,0,1,2135.5,37.59Z"/><path d="M2099.152,101.191a.426.426,0,1,1,0-.852h35.917V73.108h-19.4a7.054,7.054,0,0,1-7.034-7.036V54.51a.427.427,0,0,1,.426-.427h11.564a7.057,7.057,0,0,1,7.035,7.036V72.255h7.406V49.688l.016-.207V48.325l-1.144-.076a23.555,23.555,0,1,1,3.108,0l-1.186.079.047,1.324.012,35.819h7.407V74.333a7.054,7.054,0,0,1,7.036-7.034h11.563a.427.427,0,0,1,.425.427V79.289a7.055,7.055,0,0,1-7.035,7.035h-19.4v14.015h29.309a.426.426,0,1,1,0,.852Zm51.212-33.039a6.189,6.189,0,0,0-6.182,6.181V85.471h11.137a6.189,6.189,0,0,0,6.182-6.182V68.152Zm-40.874-2.079a6.189,6.189,0,0,0,6.182,6.182h11.137V61.117a6.188,6.188,0,0,0-6.181-6.181H2109.49Zm26.005-64a22.7,22.7,0,1,0,22.7,22.7A22.727,22.727,0,0,0,2135.5,2.073Z"/></g></g></svg>