<svg xmlns="http://www.w3.org/2000/svg" xmlns:xlink="http://www.w3.org/1999/xlink" width="100" height="100" viewBox="0 0 100 100"><defs><clipPath id="b"><rect width="100" height="100"/></clipPath></defs><g id="a" clip-path="url(#b)"><rect width="100" height="100" fill="#fff"/><g transform="translate(-707.191 -1.191)"><path d="M707.67,94.361a.479.479,0,0,1-.479-.478V23.425a.479.479,0,0,1,.479-.478h16.78v-5.13c0-5.4,4.026-9.795,8.975-9.795s8.973,4.394,8.973,9.795v5.13H759.18a.48.48,0,0,1,.332.148.471.471,0,0,1,.145.328L759.6,47.548h47.115a.478.478,0,0,1,.478.478V93.883a.478.478,0,0,1-.478.478Zm42.77-.956h55.8V48.5h-55.8Zm-42.293,0h41.336V48.026a.478.478,0,0,1,.478-.478h8.681L758.7,23.9H742.4v5.221a.478.478,0,1,1-.956,0V23.9H725.407v5.221a.478.478,0,0,1-.957,0V23.9h-16.3ZM733.425,8.978c-4.346,0-8.018,4.048-8.018,8.839v5.13h16.034v-5.13C741.442,12.943,737.845,8.978,733.425,8.978Z"/><path d="M778.338,73.106c-5.842,0-10.417-5.215-10.417-11.873a.478.478,0,1,1,.956,0c0,5.366,3.539,10.917,9.461,10.917S787.8,66.6,787.8,61.233a.478.478,0,1,1,.956,0C788.756,67.891,784.18,73.106,778.338,73.106Z"/></g></g></svg>