<svg xmlns="http://www.w3.org/2000/svg" xmlns:xlink="http://www.w3.org/1999/xlink" width="100" height="100" viewBox="0 0 100 100"><defs><clipPath id="b"><rect width="100" height="100"/></clipPath></defs><g id="a" clip-path="url(#b)"><rect width="100" height="100" fill="#fff"/><g transform="translate(-1965.192 -1.191)"><path d="M2008.359,70.453a.479.479,0,0,1-.478-.478V32.407a.479.479,0,0,1,.957,0V69.975A.479.479,0,0,1,2008.359,70.453Z"/><path d="M2035.683,101.191a.476.476,0,0,1-.428-.264L2023.3,77.018a.427.427,0,0,1-.041-.186L2023.25,8.5a7.33,7.33,0,0,1,7.309-7.309h10.327a7.248,7.248,0,0,1,7.226,7.229l0,68.23-.01.195a.478.478,0,0,1-.048.188l-11.946,23.892A.478.478,0,0,1,2035.683,101.191ZM2024.37,77.018l11.311,22.626,11.313-22.626-6.157-3.077-4.89,3.262a.477.477,0,0,1-.532,0l-4.89-3.262Zm6.667-3.881,4.644,3.1,4.645-3.1V26.054h-9.289Zm10.246-.043,5.874,2.937V26.054h-5.874Zm-17.077,2.937,5.875-2.937V26.054h-5.875Zm0-50.933h22.951v-9.29h-22.951Zm6.352-22.951a6.36,6.36,0,0,0-6.352,6.353v6.352h22.951V8.418a6.288,6.288,0,0,0-6.27-6.271Z"/><path d="M2003.236,101.191a.476.476,0,0,1-.428-.264l-11.954-23.909a.467.467,0,0,1-.049-.213V26.054h-7.582V49.483a.478.478,0,0,1-.956,0V25.576a.478.478,0,0,1,.478-.478h8.06V13.623a12.431,12.431,0,1,1,24.863,0V76.805a.475.475,0,0,1-.05.214l-11.953,23.906A.477.477,0,0,1,2003.236,101.191Zm0-1.547,11.18-22.361h-22.359Zm-11.475-23.317h22.951V26.054h-22.951Zm11.475-74.18a11.489,11.489,0,0,0-11.475,11.476V25.1h22.951V13.623A11.489,11.489,0,0,0,2003.236,2.147Z"/></g></g></svg>