<svg xmlns="http://www.w3.org/2000/svg" xmlns:xlink="http://www.w3.org/1999/xlink" width="100" height="100" viewBox="0 0 100 100"><defs><clipPath id="b"><rect width="100" height="100"/></clipPath></defs><g id="a" clip-path="url(#b)"><rect width="100" height="100" fill="#fff"/><g transform="translate(-584.191 -1.191)"><path d="M584.656,101.14a.48.48,0,0,1-.337-.129.5.5,0,0,1,0-.669l27.187-27.188-1.269-1.466a32.125,32.125,0,0,1-7.177-14.193,32.732,32.732,0,0,1,8.824-30.35l11.779-11.78a.473.473,0,0,1,.335-.128.466.466,0,0,1,.333.128l9.91,9.907,23.9-23.9a.5.5,0,0,1,.67,0,.5.5,0,0,1,0,.67l-23.9,23.9,24.58,24.58,23.9-23.9a.5.5,0,0,1,.669,0,.5.5,0,0,1,0,.669l-23.9,23.9,9.907,9.907a.5.5,0,0,1,0,.669l-7.186,7.185c-.577.577-1.15,1.164-1.722,1.751-1.407,1.442-2.862,2.933-4.364,4.243a32.66,32.66,0,0,1-15.047,7.531,34.971,34.971,0,0,1-6.751.665h0a31.954,31.954,0,0,1-9.786-1.5A33.052,33.052,0,0,1,613.641,75.1l-1.466-1.269-27.184,27.185A.479.479,0,0,1,584.656,101.14Zm27.985-73.412c-.689.69-1.279,1.32-1.8,1.928-.287.333-.57.669-.843,1.012l-.392.508c-.484.656-.9,1.255-1.273,1.838a34.429,34.429,0,0,0-2.213,4c-.1.214-.2.435-.3.658l-.091.211c-.125.3-.236.575-.339.847-.256.676-.494,1.354-.707,2.041a34.987,34.987,0,0,0-1.045,4.344c-.04.233-.079.466-.114.7l-.025.177c-.043.342-.079.632-.106.922-.069.7-.12,1.412-.146,2.124a34.815,34.815,0,0,0,.119,4.442c.033.342.07.681.111,1.022,0,0,.1.689.113.773.118.7.251,1.4.413,2.1a34.61,34.61,0,0,0,1.283,4.294q.186.5.385.983s.287.662.326.746c.329.715.648,1.355.971,1.953a34.355,34.355,0,0,0,2.445,3.9c.144.2.512.682.512.682.227.284.463.575.706.861.541.633,1.042,1.185,1.53,1.686a35.069,35.069,0,0,0,3.454,3.118l.279.213.456.333c.3.216.606.428.914.633.666.443,1.278.825,1.874,1.169.743.427,1.429.793,2.1,1.118.323.157.651.313.983.462l.565.246a34.271,34.271,0,0,0,4.252,1.415c.8.208,1.544.376,2.266.511.349.066.7.13,1.051.184l.543.082.075.007a34.56,34.56,0,0,0,4.08.25l.3,0c.834-.007,1.591-.038,2.311-.093.351-.027.707-.057,1.062-.1.084-.009.7-.088.7-.088a33.847,33.847,0,0,0,4.225-.884c.813-.227,1.543-.456,2.227-.7.338-.12.677-.243,1.013-.374l.673-.277a33.7,33.7,0,0,0,3.937-2.023c.738-.445,1.4-.872,2.012-1.306.3-.213.606-.431.9-.655l.512-.4a35.939,35.939,0,0,0,2.7-2.438l11.444-11.443L624,16.369Z"/><path d="M623.665,66.955a.381.381,0,0,1-.289-.124.57.57,0,0,1-.133-.394.317.317,0,0,1,.062-.208l10.561-9.607H623.711c-.217,0-.385-.232-.445-.388-.091-.235-.007-.311.038-.352l11.375-10.348a.69.69,0,0,1,.45-.192.382.382,0,0,1,.289.124.571.571,0,0,1,.134.394.321.321,0,0,1-.062.208l-10.561,9.607h10.156c.215,0,.383.232.443.388.092.235.007.311-.037.353L624.116,66.763a.69.69,0,0,1-.451.192Z"/></g></g></svg>