<svg xmlns="http://www.w3.org/2000/svg" xmlns:xlink="http://www.w3.org/1999/xlink" width="100" height="100" viewBox="0 0 100 100"><defs><clipPath id="b"><rect width="100" height="100"/></clipPath></defs><g id="a" clip-path="url(#b)"><rect width="100" height="100" fill="#fff"/><g transform="translate(-458.191 -1.191)"><path d="M465.708,101.191a7.525,7.525,0,0,1-7.517-7.516V15.788a7.524,7.524,0,0,1,7.517-7.515h11.956V1.627a.436.436,0,0,1,.871,0V8.273h59.313V1.627a.435.435,0,0,1,.871,0V8.273h11.956a7.523,7.523,0,0,1,7.516,7.515V93.675a7.524,7.524,0,0,1-7.516,7.516Zm-6.645-7.516a6.653,6.653,0,0,0,6.645,6.646h84.967a6.653,6.653,0,0,0,6.645-6.646V37.466H459.063Zm6.645-84.532a6.653,6.653,0,0,0-6.645,6.645V36.6H557.32V15.788a6.653,6.653,0,0,0-6.645-6.645H538.719V13.51l.89.315a3.976,3.976,0,1,1-2.65,0l.889-.314V9.143H478.535V13.51l.889.315a3.976,3.976,0,1,1-2.65,0l.89-.314V9.143Zm72.576,5.31a3.106,3.106,0,1,0,3.1,3.106A3.109,3.109,0,0,0,538.284,14.453Zm-60.185,0a3.105,3.105,0,1,0,3.105,3.106A3.108,3.108,0,0,0,478.1,14.453Z"/><path d="M494.03,25.075a.436.436,0,1,1,0-.871h28.323a.436.436,0,1,1,0,.871Z"/><path d="M478.1,65.788a7.516,7.516,0,1,1,7.516-7.516A7.525,7.525,0,0,1,478.1,65.788Zm0-14.161a6.645,6.645,0,1,0,6.645,6.645A6.653,6.653,0,0,0,478.1,51.627Z"/><path d="M478.1,87.03a7.515,7.515,0,1,1,7.516-7.516A7.524,7.524,0,0,1,478.1,87.03Zm0-14.161a6.646,6.646,0,1,0,6.645,6.645A6.653,6.653,0,0,0,478.1,72.869Z"/><path d="M492.26,58.707a.435.435,0,0,1,0-.87h53.1a.435.435,0,0,1,0,.87Z"/><path d="M492.26,79.949a.435.435,0,1,1,0-.87h53.1a.435.435,0,0,1,0,.87Z"/></g></g></svg>