<svg xmlns="http://www.w3.org/2000/svg" xmlns:xlink="http://www.w3.org/1999/xlink" width="100" height="100" viewBox="0 0 100 100"><defs><clipPath id="b"><rect width="100" height="100"/></clipPath></defs><g id="a" clip-path="url(#b)"><rect width="100" height="100" fill="#fff"/><g transform="translate(-1826.192 -1.191)"><path d="M1844.57,101.191a7.288,7.288,0,0,1-7.4-7.1,6.217,6.217,0,0,1,1.651-4.617L1888.6,38.34a9.516,9.516,0,0,0,2.649-7.136l-.344-6.031a13.184,13.184,0,0,1,4.515-10.449l6.372-5.571a27.29,27.29,0,0,1,17.96-6.754c.441,0,.885.01,1.329.032a5.336,5.336,0,0,1,5.011,4.442,27.2,27.2,0,0,1-4.36,19.957l-4.767,6.994a13.177,13.177,0,0,1-9.821,5.733l-6.041.383a9.521,9.521,0,0,0-6.767,3.487l-44.8,55.544a6.223,6.223,0,0,1-4.389,2.2C1844.956,101.183,1844.763,101.191,1844.57,101.191Zm75.19-97.768a26.279,26.279,0,0,0-17.3,6.5l-6.372,5.571a12.16,12.16,0,0,0-4.166,9.613l.345,6.039a10.553,10.553,0,0,1-2.937,7.9l-49.776,51.134a5.19,5.19,0,0,0-1.364,3.864,6.265,6.265,0,0,0,6.364,6.117c.17,0,.342-.006.512-.02a5.2,5.2,0,0,0,3.674-1.822l44.794-55.542a10.553,10.553,0,0,1,7.5-3.865l6.013-.381a12.169,12.169,0,0,0,9.066-5.29l4.768-7a26.186,26.186,0,0,0,4.2-19.208,4.323,4.323,0,0,0-4.051-3.591Q1920.392,3.423,1919.76,3.423Z"/><path d="M1918.406,101.191a6.25,6.25,0,0,1-4.557-1.929L1884.1,66.607a.514.514,0,0,1,.034-.724.514.514,0,0,1,.724.034L1914.6,98.571a5.19,5.19,0,0,0,3.774,1.6h.13a6.278,6.278,0,0,0,6.369-6.5,5.206,5.206,0,0,0-1.6-3.777l-33.375-30.4a.511.511,0,0,1-.034-.723.511.511,0,0,1,.722-.034l33.379,30.4a6.228,6.228,0,0,1,1.929,4.513,7.3,7.3,0,0,1-7.4,7.544Z"/><path d="M1868.836,49.594a.506.506,0,0,1-.379-.167l-2.662-2.922a9.512,9.512,0,0,0-6.962-3.073l-6.043-.018a13.231,13.231,0,0,1-8.654-3.5l-17.619-20.937a2.581,2.581,0,0,1,3.8-3.488l15.939,15.937a1.989,1.989,0,0,0,2.814,0l1.51-1.511-18.487-18.488a.512.512,0,0,1,.724-.724l18.488,18.487,2.6-2.6L1835.42,8.1a.51.51,0,0,1,0-.723.509.509,0,0,1,.723,0l18.489,18.488,1.511-1.511a1.994,1.994,0,0,0,0-2.814L1840.2,5.606a2.589,2.589,0,0,1,1.823-4.414,2.594,2.594,0,0,1,1.664.613l20.892,17.574a13.237,13.237,0,0,1,3.54,8.689l.02,6.053a9.519,9.519,0,0,0,3.075,6.965l2.85,2.6a.512.512,0,0,1-.345.891.5.5,0,0,1-.344-.134l-2.853-2.6a10.561,10.561,0,0,1-3.408-7.717L1867.1,28.1a12.225,12.225,0,0,0-3.154-7.906l-.047-.051L1843.033,2.589a1.561,1.561,0,0,0-1-.367,1.559,1.559,0,0,0-1.1,2.66l15.936,15.937a3.017,3.017,0,0,1,0,4.263l-7.071,7.072a3.018,3.018,0,0,1-4.263,0l-15.937-15.938a1.557,1.557,0,0,0-2.292,2.105l17.552,20.866.052.047a12.213,12.213,0,0,0,7.882,3.153l6.049.02a10.549,10.549,0,0,1,7.714,3.406l2.663,2.923a.511.511,0,0,1-.378.857Z"/></g></g></svg>