<svg xmlns="http://www.w3.org/2000/svg" xmlns:xlink="http://www.w3.org/1999/xlink" width="100" height="100" viewBox="0 0 100 100"><defs><clipPath id="b"><rect width="100" height="100"/></clipPath></defs><g id="a" clip-path="url(#b)"><rect width="100" height="100" fill="#fff"/><g transform="translate(-329.191 -1.191)"><path d="M353.712,76.3V26.082h51.24V76.3Zm.963-.963h49.314V27.045H354.675Z"/><path d="M408.413,100.3V87.866H394.6V100.3h-.963V87.866H379.814V100.3h-.963V87.866h-13.82V100.3h-.962V87.866H350.25V100.3h-.963V87.866h-7.378v-6.63H329.191v-.962h12.718V66.455H329.191v-.963h12.718V51.673H329.191V50.71h12.718V36.891H329.191v-.963h12.718V22.109H329.191v-.963h12.718V14.517h7.378V2.081h.963V14.517h13.819V2.081h.962V14.517h13.82V2.081h.963V14.517h13.819V2.081h.963V14.517h13.817V2.081h.963V14.517h7.38v6.629h12.435v.963H416.756V35.928h12.435v.963H416.756V50.71h12.435v.963H416.756V65.492h12.435v.963H416.756V80.274h12.435v.962H416.756v6.63h-7.38V100.3ZM342.871,86.9h72.922V15.48H342.871Z"/></g></g></svg>