<?xml version="1.0" encoding="UTF-8"?>
<svg id="Layer_2" data-name="Layer 2" xmlns="http://www.w3.org/2000/svg" viewBox="0 0 143.28 139.7">
  <defs>
    <style>
      .cls-1 {
        fill: #fff;
      }

      .cls-2 {
        fill: #393073;
      }
    </style>
  </defs>
  <g id="Layer_1-2" data-name="Layer 1">
    <path class="cls-2" d="M143.28,21.4V118.89c-.59,.21-.49,.75-.62,1.21-3.25,12.21-12.9,19.59-25.58,19.59-30.71,0-61.41,0-92.12,0C11.46,139.69,.02,128.25,.01,114.76,0,84.85,0,54.94,.02,25.02c0-5.94,2.06-11.15,5.76-15.78C9.84,4.16,15.36,1.66,21.4,0H121.28c4.52,1.09,8.82,2.58,12.54,5.56,5.16,4.12,7.78,9.68,9.45,15.84Zm-96.68,14.69c-1.29,0-2.59,.11-3.86-.02-2.92-.3-5.22-.11-5.03,3.84,.06,1.3-.72,2.65-1.18,3.95-5.98,17.15-11.97,34.29-17.95,51.44q-1.12,3.2,2.38,3.23c2.48,.01,4.95-.04,7.43,.02,1.51,.04,2.3-.52,2.74-2.05,.98-3.41,2.31-6.72,3.23-10.15,.55-2.05,1.42-2.9,3.66-2.84,5.84,.16,11.69,.12,17.53,0,1.72-.03,2.41,.57,2.89,2.17,1.04,3.49,2.39,6.9,3.48,10.38,.5,1.58,1.32,2.17,2.99,2.09,2.87-.14,5.76-.21,8.61,.01,2.92,.22,2.95-.79,2.09-3.15-6.2-17.07-12.3-34.18-18.41-51.28q-2.73-7.63-10.61-7.64Zm75.89,36.02c.02-11.85-5.53-19.78-15.88-21.34-10.46-1.58-19.52,.89-25.02,13.21-3.14,7.04-3.19,14.44-.56,21.67,2.71,7.44,8.19,11.95,15.95,13.54,5.81,1.19,11.58,.6,17.35-.58,3.12-.64,4.64-2.11,4.09-5.46-.24-1.45-.1-2.96-.03-4.44,.08-1.62-.35-2.02-2.05-1.51-3.8,1.15-7.72,1.55-11.71,1.37-5.43-.25-9.61-2.93-11.22-7.29-1.08-2.93-.91-3.23,2.16-3.2,6.82,.06,13.64-.07,20.46,.32,6.37,.36,6.45,.06,6.46-6.28Z"/>
    <path class="cls-1" d="M46.6,36.09q7.89,0,10.61,7.64c6.11,17.1,12.21,34.21,18.41,51.28,.86,2.36,.83,3.38-2.09,3.15-2.86-.22-5.75-.15-8.61-.01-1.67,.08-2.49-.51-2.99-2.09-1.09-3.48-2.44-6.89-3.48-10.38-.48-1.6-1.17-2.2-2.89-2.17-5.84,.11-11.69,.15-17.53,0-2.24-.06-3.11,.79-3.66,2.84-.92,3.42-2.25,6.74-3.23,10.15-.44,1.53-1.23,2.08-2.74,2.05-2.48-.06-4.95,0-7.43-.02q-3.5-.01-2.38-3.23c5.98-17.15,11.98-34.29,17.95-51.44,.46-1.31,1.24-2.66,1.18-3.95-.19-3.95,2.11-4.14,5.03-3.84,1.27,.13,2.57,.02,3.86,.02Zm-.52,35.89s0-.07,0-.1c1.78,0,3.57-.1,5.35,.03,2.01,.15,2.64-.41,1.97-2.47-2.05-6.29-3.95-12.62-5.94-18.92-.19-.62-.25-1.53-1.08-1.59-.9-.06-.94,.87-1.13,1.49-1.47,4.91-2.97,9.82-4.33,14.76-.59,2.14-2.69,4.82-1.39,6.25,1.08,1.19,4.28,.44,6.54,.55Z"/>
    <path class="cls-1" d="M122.5,72.11c0,6.34-.09,6.64-6.46,6.28-6.83-.39-13.64-.26-20.46-.32-3.07-.03-3.24,.28-2.16,3.2,1.61,4.36,5.79,7.05,11.22,7.29,3.98,.18,7.91-.22,11.71-1.37,1.7-.51,2.13-.12,2.05,1.51-.07,1.48-.21,3,.03,4.44,.55,3.34-.97,4.81-4.09,5.46-5.77,1.18-11.54,1.77-17.35,.58-7.76-1.59-13.25-6.1-15.95-13.54-2.63-7.22-2.58-14.63,.56-21.67,5.5-12.32,14.56-14.79,25.02-13.21,10.35,1.56,15.9,9.49,15.88,21.34Zm-21.28-2.58c1.98,0,3.96,.02,5.94,0,2.88-.04,3.49-.94,2.52-3.65-1.34-3.73-4.85-5.71-9.3-5.21-3.61,.4-7.1,3.89-7.54,7.41-.17,1.35,.53,1.46,1.54,1.46,2.28-.02,4.56,0,6.83,0Z"/>
    <path class="cls-2" d="M46.08,71.98c-2.26-.11-5.47,.63-6.54-.55-1.3-1.44,.8-4.11,1.39-6.25,1.36-4.94,2.86-9.85,4.33-14.76,.19-.62,.23-1.55,1.13-1.49,.83,.06,.88,.97,1.08,1.59,1.99,6.3,3.89,12.64,5.94,18.92,.67,2.07,.04,2.62-1.97,2.47-1.77-.13-3.56-.03-5.35-.03,0,.03,0,.07,0,.1Z"/>
    <path class="cls-2" d="M101.22,69.53c-2.28,0-4.56-.01-6.83,0-1.01,0-1.71-.1-1.54-1.46,.44-3.52,3.93-7.01,7.54-7.41,4.44-.49,7.96,1.48,9.3,5.21,.97,2.71,.36,3.61-2.52,3.65-1.98,.03-3.96,0-5.94,0Z"/>
  </g>
</svg>