<?xml version="1.0" encoding="UTF-8"?>
<svg id="Layer_2" data-name="Layer 2" xmlns="http://www.w3.org/2000/svg" viewBox="0 0 142.75 142.54">
  <defs>
    <style>
      .cls-1 {
        fill: #add29f;
      }

      .cls-2 {
        fill: #f9faf7;
      }

      .cls-3 {
        fill: #a3cd94;
      }

      .cls-4 {
        fill: #acd29d;
      }

      .cls-5 {
        fill: #5fac49;
      }

      .cls-6 {
        fill: #64ae4c;
      }
    </style>
  </defs>
  <g id="Layer_1-2" data-name="Layer 1">
    <path class="cls-5" d="M123.13,.04h16.65c-6.22,25.02-15.42,48.89-27.67,71.65,.59-.02,.98-.12,1.23-.38,1.73-1.76,3.57-3.43,5.11-5.34,8.58-10.67,15.41-22.46,21.82-34.5,.58-1.09,.79-2.52,2.34-2.83-.14,2.45,.33,4.93-.33,7.37-3.38,5.07-6.91,10.04-10.07,15.24-1.77,2.9-4.43,5.19-5.57,8.47-.22,.31-.44,.63-.65,.94-.12,.17-.25,.34-.37,.52-.23,.41-.52,.93,.16,1.09,.65,.16,.95-.44,1.24-.92,4.22-5.13,8.52-10.21,12.23-15.73,.9-1.34,1.95-2.43,3.3-3.26,0,32.96,.01,65.92,.02,98.87-.4,.31-.8,.61-1.19,.92-45.85,.01-91.7,.02-137.54,.05-1.26,0-2.58-.3-3.79,.34,0-24.34,0-48.69,0-73.03,1.29,1.07,2.68,2.04,3.86,3.22,6.1,6.08,12.35,12.02,18.16,18.37,9.37,10.22,19.45,19.27,32.47,24.81,8.45,3.6,15.98,9.12,24.44,12.8,2.27,.99,4.55,1.97,7.09,2.04,3.1,.1,4.16-1.12,3.56-4.18-.41-2.06-1.38-3.91-2.35-5.75-6.83-12.94-13.68-25.87-20.53-38.81-.65-1.23-1.35-2.39-2.36-3.39C44.81,59.14,25.26,39.64,5.66,20.19c-1.73-1.71-3.26-3.72-5.62-4.71C.04,10.92,.11,6.37,0,1.82-.03,.33,.34,0,1.83,0,15.31,.07,28.78,.04,42.26,.04c8.28,23.37,21.95,43.39,37.88,62.37,1.02-1.32,.62-1.84,.26-2.28-3.3-3.97-5.72-8.52-8.56-12.79-6.41-9.65-12.49-19.51-17.59-29.93-2.73-5.58-5.65-11.12-6.64-17.38h5.95c-.07,1.53,.47,2.93,.96,4.32,8.07,22.62,19.56,43.38,34.2,62.41,1.48,1.93,3.25,3.63,5.03,5.59,.52-1.46-.23-2.13-.6-2.88-9.13-18.34-17.25-37.09-22.93-56.81-1.2-4.15-2.75-8.24-2.97-12.62,5.35,0,10.7,0,16.05,0,.81,5.67,1.49,11.36,2.45,17,3.29,19.33,9.71,37.89,14.1,56.94,.54,2.35,2.03,2.21,3.76,2.3,1.93,.1,2.73-.68,3.22-2.58,3.42-13.3,7.08-26.54,10.44-39.85,2.8-11.11,5.03-22.35,5.88-33.82Zm1.19,64.12c.49-.16,.91-.46,.84-1.01-.06-.46-.46-.53-.87-.33-.67,.59-1.96,1.12-1.35,2.1,.47,.76,1.01-.28,1.38-.77Zm-20.4,21.37s0,.04,0,.06c-3.86,0-7.72,.06-11.57-.02-1.93-.04-2.42,.67-1.96,2.49,1,4.02,1.94,8.07,2.79,12.12,.32,1.54,1.07,2.13,2.62,2.14,5.24,.03,10.48,.09,15.72,.25,1.86,.06,2.68-.77,3.04-2.48,.84-4.06,1.68-8.12,2.69-12.14,.5-1.98-.25-2.46-2.04-2.44-3.76,.05-7.52,.02-11.28,.02Zm18.92-19.15c-3.04,1.02-3.51,1.54-3.76,4.13,1.58-1.15,3-2.18,3.76-4.13Zm-41.58-3.66c.66,2.12,1.77,2.92,2.97,3.64-.25-1.57-.73-2.93-2.97-3.64Z"/>
    <path class="cls-2" d="M.04,15.48c2.36,.99,3.89,3,5.62,4.71,19.6,19.45,39.15,38.96,58.73,58.43,1,1,1.71,2.17,2.36,3.39,6.84,12.94,13.69,25.87,20.53,38.81,.97,1.84,1.94,3.69,2.35,5.75,.61,3.06-.46,4.27-3.56,4.18-2.53-.08-4.82-1.06-7.09-2.04-8.46-3.68-16-9.2-24.44-12.8-13.02-5.55-23.1-14.59-32.47-24.81-5.81-6.34-12.06-12.29-18.16-18.37-1.18-1.18-2.57-2.15-3.86-3.22,0-9.3,0-18.6,0-27.91,1.02,.77,2.12,1.46,3.05,2.32,10.41,9.6,20.27,19.75,30.26,29.77,4.89,4.9,9.74,9.85,14.81,14.57,2.43,2.27,4.58,2.03,6.52-.01,2.33-2.46,2.37-4.34,.07-7.02-.77-.9-1.63-1.72-2.47-2.56-15.33-15.32-30.65-30.66-46.02-45.95-1.94-1.93-3.68-4.13-6.23-5.38V15.48Z"/>
    <path class="cls-1" d="M123.13,.04c-.84,11.47-3.07,22.7-5.88,33.82-3.36,13.31-7.02,26.55-10.44,39.85-.49,1.9-1.29,2.67-3.22,2.58-1.72-.09-3.21,.05-3.76-2.3-4.39-19.06-10.81-37.62-14.1-56.94-.96-5.64-1.64-11.33-2.45-17,13.28,0,26.56,0,39.84,0Z"/>
    <path class="cls-6" d="M.04,27.35c2.55,1.24,4.29,3.45,6.23,5.38,15.37,15.28,30.69,30.62,46.02,45.95,.84,.84,1.7,1.66,2.47,2.56,2.3,2.68,2.26,4.56-.07,7.02-1.94,2.05-4.09,2.28-6.52,.01-5.06-4.72-9.92-9.67-14.81-14.57-9.99-10.02-19.85-20.18-30.26-29.77-.94-.86-2.03-1.55-3.05-2.32,0-4.75,0-9.5,0-14.25Z"/>
    <path class="cls-4" d="M67.24,.04c.22,4.39,1.78,8.47,2.97,12.62,5.68,19.72,13.8,38.47,22.93,56.81,.38,.76,1.13,1.42,.6,2.88-1.77-1.96-3.54-3.66-5.03-5.59-14.63-19.03-26.12-39.79-34.2-62.41-.5-1.39-1.03-2.79-.96-4.32h13.68Z"/>
    <path class="cls-4" d="M142.61,28.64c-1.54,.31-1.76,1.74-2.34,2.83-6.41,12.05-13.24,23.83-21.82,34.5-1.54,1.91-3.38,3.58-5.11,5.34-.25,.25-.64,.36-1.23,.38C124.36,48.93,133.56,25.05,139.78,.04h2.97c-.05,9.53-.09,19.07-.14,28.6Z"/>
    <path class="cls-4" d="M47.61,.04c.99,6.26,3.91,11.8,6.64,17.38,5.1,10.42,11.18,20.28,17.59,29.93,2.84,4.27,5.26,8.83,8.56,12.79,.36,.44,.76,.96-.26,2.28C64.21,43.42,50.54,23.4,42.26,.04h5.35Z"/>
    <path class="cls-4" d="M103.92,85.53c3.76,0,7.52,.04,11.28-.02,1.79-.03,2.54,.45,2.04,2.44-1.01,4.02-1.84,8.09-2.69,12.14-.36,1.71-1.18,2.53-3.04,2.48-5.24-.16-10.48-.22-15.72-.25-1.55,0-2.3-.6-2.62-2.14-.85-4.06-1.78-8.1-2.79-12.12-.45-1.82,.04-2.53,1.96-2.49,3.86,.08,7.72,.02,11.57,.02,0-.02,0-.04,0-.06Z"/>
    <path class="cls-4" d="M142.29,36c.52,2.1,.35,4.23,.27,6.35-1.35,.84-2.4,1.92-3.3,3.26-3.71,5.52-8.01,10.6-12.23,15.73-.47-.06-.94-.12-1.4-.18,.12-.17,.25-.34,.37-.52,.22-.31,.44-.63,.65-.94,1.15-3.28,3.81-5.58,5.57-8.47,3.17-5.2,6.69-10.17,10.07-15.24Z"/>
    <path class="cls-6" d="M122.85,66.38c-.76,1.96-2.18,2.99-3.76,4.13,.25-2.6,.72-3.11,3.76-4.13Z"/>
    <path class="cls-3" d="M81.27,62.72c2.24,.71,2.72,2.06,2.97,3.64-1.2-.71-2.31-1.51-2.97-3.64Z"/>
    <path class="cls-3" d="M124.32,64.16c-.37,.48-.9,1.52-1.38,.77-.62-.98,.67-1.51,1.35-2.1,.01,.45,.02,.89,.03,1.34Z"/>
    <path class="cls-3" d="M125.61,61.17c.47,.06,.94,.12,1.4,.18-.29,.47-.59,1.08-1.24,.92-.68-.17-.4-.68-.16-1.09Z"/>
    <path class="cls-4" d="M124.32,64.16c-.01-.45-.02-.89-.03-1.34,.41-.19,.81-.13,.87,.33,.07,.54-.35,.84-.84,1.01Z"/>
    <path class="cls-3" d="M142.57,141.23c.1,.95-.31,1.24-1.19,.92,.4-.31,.8-.61,1.19-.92Z"/>
    <path class="cls-3" d="M126.64,59.71c-.22,.31-.44,.62-.65,.94,.22-.31,.44-.63,.65-.94Z"/>
  </g>
</svg>