<?xml version="1.0" encoding="UTF-8"?>
<svg id="Layer_2" data-name="Layer 2" xmlns="http://www.w3.org/2000/svg" viewBox="0 0 143.27 139.68">
  <defs>
    <style>
      .cls-1 {
        fill: #fff;
      }

      .cls-2 {
        fill: #393073;
      }

      .cls-3 {
        fill: #3a3174;
      }
    </style>
  </defs>
  <g id="Layer_1-2" data-name="Layer 1">
    <path class="cls-2" d="M143.27,20.8V119.47c-.97,.45-.85,1.48-1.1,2.26-3.49,10.91-13.04,17.95-24.47,17.95-31,0-62,.02-93,0-13.14-.01-24.67-11.5-24.68-24.61C0,84.95,0,54.85,.03,24.74c0-5.72,2.03-10.78,5.55-15.28C9.64,4.27,15.25,1.68,21.41,0H121.87c6.25,1.69,11.82,4.4,16,9.63,2.68,3.35,3.8,7.36,5.4,11.18ZM34.01,67.18c0,9.51,.05,19.01-.04,28.51-.02,2.12,.54,3.11,2.84,2.95,2.46-.16,4.96-.17,7.42,0,2.33,.16,2.85-.84,2.79-2.96-.13-4.75,.07-9.51-.09-14.25-.08-2.29,.52-3.12,2.94-2.98,3.74,.21,7.49,.17,11.23-.51,11.24-2.02,17.91-9.68,17.98-20.88,.06-10.91-6.57-18.84-17.69-20.82-8.15-1.45-16.4-.31-24.59-.55-2.28-.07-2.85,.84-2.83,2.96,.09,9.5,.04,19.01,.04,28.51Zm53.37,7.53h.18c0,7.03,.06,14.06-.04,21.09-.03,2.15,.61,3.06,2.88,2.92,2.66-.17,5.35-.16,8.02,0,2.12,.12,2.7-.69,2.68-2.73-.09-8.81,.02-17.63-.08-26.44-.02-1.98,.72-3.18,2.39-3.99,3.34-1.61,6.85-2.61,10.57-2.5,1.94,.06,2.66-.57,2.56-2.54-.13-2.67-.17-5.36,0-8.02,.17-2.49-1.06-2.83-3.06-2.52-4.22,.66-7.9,2.41-11.12,5.21-.54,.47-.97,1.49-1.9,1.05-.7-.33-.53-1.22-.55-1.89-.06-2.39-1.05-3.62-3.66-3.36-1.86,.18-3.78,.19-5.64,0-2.56-.27-3.41,.51-3.32,3.23,.22,6.83,.07,13.66,.07,20.49Z"/>
    <path class="cls-1" d="M34.01,67.18c0-9.51,.05-19.01-.04-28.51-.02-2.13,.55-3.03,2.83-2.96,8.2,.24,16.44-.9,24.59,.55,11.11,1.97,17.75,9.91,17.69,20.82-.07,11.2-6.74,18.86-17.98,20.88-3.75,.67-7.49,.72-11.23,.51-2.42-.14-3.02,.69-2.94,2.98,.16,4.75-.04,9.51,.09,14.25,.06,2.12-.46,3.12-2.79,2.96-2.46-.17-4.96-.17-7.42,0-2.3,.15-2.85-.83-2.84-2.95,.08-9.5,.04-19.01,.04-28.51Zm12.98-9.99c0,2.67,.08,5.34-.03,8-.07,1.75,.52,2.49,2.33,2.53,3.48,.07,6.91-.21,10.23-1.24,4.44-1.38,6.59-4.53,6.59-9.36,0-4.81-1.95-7.53-6.49-9.08-3.64-1.24-7.39-1.03-11.14-.89-1.4,.05-1.5,.97-1.49,2.04,.02,2.67,0,5.33,0,8Z"/>
    <path class="cls-1" d="M87.38,74.71c0-6.83,.15-13.67-.07-20.49-.09-2.72,.76-3.5,3.32-3.23,1.86,.2,3.77,.19,5.64,0,2.61-.26,3.59,.97,3.66,3.36,.02,.67-.15,1.56,.55,1.89,.93,.44,1.36-.58,1.9-1.05,3.22-2.8,6.91-4.56,11.12-5.21,2-.31,3.23,.03,3.06,2.52-.18,2.66-.14,5.35,0,8.02,.1,1.96-.63,2.59-2.56,2.54-3.72-.11-7.23,.89-10.57,2.5-1.68,.81-2.41,2.01-2.39,3.99,.1,8.81-.01,17.63,.08,26.44,.02,2.04-.55,2.85-2.68,2.73-2.66-.15-5.35-.17-8.02,0-2.27,.14-2.91-.76-2.88-2.92,.1-7.03,.04-14.06,.04-21.09h-.18Z"/>
    <path class="cls-3" d="M46.99,57.18c0-2.67,.01-5.33,0-8,0-1.07,.09-1.99,1.49-2.04,3.75-.14,7.5-.35,11.14,.89,4.54,1.55,6.49,4.27,6.49,9.08,0,4.83-2.15,7.98-6.59,9.36-3.32,1.03-6.75,1.31-10.23,1.24-1.81-.04-2.4-.78-2.33-2.53,.11-2.66,.03-5.33,.03-8Z"/>
  </g>
</svg>