<?xml version="1.0" encoding="utf-8"?>
<!-- Generator: Adobe Illustrator 27.0.0, SVG Export Plug-In . SVG Version: 6.00 Build 0)  -->
<svg version="1.1" id="Layer_1" xmlns="http://www.w3.org/2000/svg" xmlns:xlink="http://www.w3.org/1999/xlink" x="0px" y="0px"
	 viewBox="0 0 1592 1080" style="enable-background:new 0 0 1592 1080;" xml:space="preserve">
<style type="text/css">
	.st0{opacity:0.35;}
	.st1{fill:url(#Ellipse_15_00000048496395985338831840000002429007695396105386_);}
	.st2{fill:#FFFFFF;}
	.st3{opacity:0.13;}
	.st4{fill:url(#Ellipse_17_00000121984957631997367230000013177944130576267690_);}
	.st5{fill:url(#Ellipse_18_00000144324574395716571110000001465658579902433214_);}
	.st6{fill:url(#Ellipse_19_00000134222077620134302480000011545873063850578358_);}
	.st7{fill:#1973D1;}
	.st8{fill:url(#Ellipse_21_00000031903222219631751050000009381234737502134657_);}
	.st9{fill:url(#Ellipse_22_00000031168821843997299090000016419990726080573885_);}
	.st10{fill:url(#Ellipse_23_00000111182472763204059250000007340784891895029415_);}
	.st11{fill:url(#Ellipse_25_00000047036704750121652340000016300977029343933591_);}
	.st12{fill:url(#Ellipse_26_00000107547726665306496760000012515474583839302805_);}
	.st13{fill:url(#Ellipse_27_00000103265336318134072910000001782659136549103280_);}
	.st14{fill:#031F4B;}
	.st15{font-family:'Poppins-Bold';}
	.st16{font-size:140.8809px;}
	.st17{font-family:'Poppins-SemiBold';}
	.st18{font-size:70px;}
	.st19{enable-background:new    ;}
	.st20{fill:#1564B8;}
	.st21{font-size:31px;}
</style>
<g id="Group_223" transform="translate(7596 2296.66)" class="st0">
	
		<radialGradient id="Ellipse_15_00000096040646383666479980000009902056687833077932_" cx="-7098.1807" cy="-1337.1104" r="0.5" gradientTransform="matrix(731.634 0 0 -738.96 5186040 -989808.625)" gradientUnits="userSpaceOnUse">
		<stop  offset="0.178" style="stop-color:#000000"/>
		<stop  offset="0.243" style="stop-color:#232323"/>
		<stop  offset="0.359" style="stop-color:#5D5D5D"/>
		<stop  offset="0.475" style="stop-color:#8E8E8E"/>
		<stop  offset="0.589" style="stop-color:#B7B7B7"/>
		<stop  offset="0.7" style="stop-color:#D6D6D6"/>
		<stop  offset="0.807" style="stop-color:#ECECEC"/>
		<stop  offset="0.909" style="stop-color:#FAFAFA"/>
		<stop  offset="1" style="stop-color:#FFFFFF"/>
	</radialGradient>
	
		<ellipse id="Ellipse_15" style="fill:url(#Ellipse_15_00000096040646383666479980000009902056687833077932_);" cx="-7230.2" cy="-1737.5" rx="365.8" ry="369.5"/>
</g>
<circle id="Ellipse_16" class="st2" cx="365.9" cy="557.1" r="264.9"/>
<g id="Group_224" transform="translate(7717.225 2417.576)">
	<path id="Path_468" d="M-7360.6-1614.1L-7360.6-1614.1c-2.8-0.1-5.4-0.3-8.1-0.5c-0.8-0.1-1.4-0.8-1.4-1.6c0,0,0,0,0,0
		c0.1-0.8,0.8-1.4,1.6-1.4c2.6,0.2,5.3,0.4,7.9,0.5c0.8,0,1.5,0.7,1.4,1.5C-7359.2-1614.7-7359.8-1614.1-7360.6-1614.1
		L-7360.6-1614.1z M-7324.7-1615.1c-0.8,0-1.5-0.7-1.5-1.5c0-0.8,0.6-1.4,1.3-1.5c2.6-0.3,5.3-0.6,7.9-0.9c0.8-0.1,1.6,0.4,1.7,1.3
		c0.1,0.8-0.4,1.6-1.3,1.7c0,0,0,0,0,0c-2.7,0.4-5.3,0.7-8,0.9C-7324.6-1615.1-7324.7-1615.1-7324.7-1615.1L-7324.7-1615.1z
		 M-7404.2-1619.9c-0.1,0-0.2,0-0.3,0c-2.6-0.6-5.2-1.2-7.8-1.9c-0.8-0.2-1.3-1-1.1-1.8c0.2-0.8,1-1.3,1.8-1.1
		c2.6,0.7,5.1,1.3,7.7,1.9c0.8,0.2,1.3,1,1.1,1.8C-7402.9-1620.4-7403.5-1619.9-7404.2-1619.9L-7404.2-1619.9z M-7281.6-1623.5
		c-0.8,0-1.5-0.7-1.5-1.5c0-0.7,0.4-1.2,1.1-1.4c2.6-0.7,5.1-1.5,7.6-2.3c0.8-0.3,1.6,0.2,1.9,1s-0.2,1.6-1,1.9l0,0
		c-2.5,0.8-5.1,1.6-7.7,2.4C-7281.3-1623.5-7281.4-1623.5-7281.6-1623.5L-7281.6-1623.5z M-7446-1633.4c-0.2,0-0.4,0-0.6-0.1
		c-2.5-1.1-4.9-2.2-7.4-3.3c-0.8-0.3-1.1-1.2-0.8-2s1.2-1.1,2-0.8c0,0,0.1,0,0.1,0c2.4,1.1,4.8,2.2,7.3,3.2c0.8,0.3,1.1,1.2,0.8,2
		C-7444.8-1633.8-7445.4-1633.4-7446-1633.4L-7446-1633.4z M-7240.7-1639.4c-0.8,0-1.5-0.7-1.5-1.5c0-0.6,0.3-1.1,0.8-1.3
		c2.4-1.2,4.7-2.4,7-3.7c0.7-0.4,1.6-0.1,2,0.6s0.1,1.6-0.6,2c-2.4,1.3-4.7,2.5-7.1,3.7C-7240.2-1639.5-7240.4-1639.4-7240.7-1639.4
		L-7240.7-1639.4z M-7484.7-1654.3c-0.3,0-0.6-0.1-0.8-0.2c-2.2-1.5-4.5-3-6.7-4.5c-0.7-0.5-0.8-1.4-0.4-2.1
		c0.5-0.7,1.4-0.8,2.1-0.4c2.2,1.5,4.4,3,6.6,4.5c0.7,0.5,0.9,1.4,0.4,2.1C-7483.7-1654.5-7484.2-1654.3-7484.7-1654.3
		L-7484.7-1654.3z M-7203.3-1662.4c-0.8,0-1.5-0.7-1.5-1.5c0-0.5,0.2-0.9,0.6-1.2c2.1-1.6,4.2-3.2,6.3-4.9c0.6-0.5,1.6-0.4,2.1,0.2
		c0.5,0.6,0.4,1.6-0.2,2.1l0,0c-2.1,1.7-4.2,3.3-6.4,4.9C-7202.7-1662.6-7203-1662.4-7203.3-1662.4L-7203.3-1662.4z M-7519-1681.6
		c-0.4,0-0.8-0.1-1-0.4c-1.9-1.9-3.8-3.7-5.7-5.7c-0.6-0.6-0.5-1.5,0.1-2.1c0.6-0.5,1.5-0.5,2.1,0c1.9,1.9,3.7,3.8,5.7,5.6
		c0.6,0.6,0.6,1.5,0.1,2.1C-7518.2-1681.8-7518.6-1681.6-7519-1681.6L-7519-1681.6z M-7170.6-1691.8c-0.8,0-1.5-0.7-1.5-1.5
		c0-0.4,0.1-0.7,0.4-1c1.8-1.9,3.6-3.9,5.3-5.9c0.5-0.6,1.5-0.7,2.1-0.2c0.6,0.5,0.7,1.5,0.2,2.1c0,0,0,0,0,0c-1.8,2-3.6,4-5.4,6
		C-7169.8-1691.9-7170.2-1691.8-7170.6-1691.8L-7170.6-1691.8z M-7548-1714.7c-0.5,0-0.9-0.2-1.2-0.6c-1.6-2.2-3.1-4.4-4.6-6.6
		c-0.5-0.7-0.3-1.6,0.4-2.1c0.7-0.5,1.6-0.3,2.1,0.4c1.5,2.2,3,4.4,4.6,6.5c0.5,0.7,0.3,1.6-0.3,2.1
		C-7547.4-1714.8-7547.7-1714.7-7548-1714.7L-7548-1714.7z M-7143.6-1726.4c-0.3,0-0.6-0.1-0.8-0.2c-0.7-0.4-0.9-1.4-0.5-2.1
		c1.4-2.2,2.8-4.5,4.2-6.8c0.4-0.7,1.3-0.9,2-0.5c0.7,0.4,0.9,1.3,0.5,2c-1.4,2.3-2.8,4.6-4.3,6.8
		C-7142.6-1726.7-7143.1-1726.4-7143.6-1726.4z M-7570.6-1752.3c-0.6,0-1.1-0.3-1.3-0.8c-1.2-2.4-2.3-4.8-3.4-7.3
		c-0.3-0.8,0-1.6,0.8-2c0.8-0.3,1.6,0,2,0.8c1.1,2.4,2.2,4.8,3.3,7.2c0.4,0.7,0.1,1.6-0.7,2c0,0,0,0,0,0
		C-7570.1-1752.4-7570.3-1752.3-7570.6-1752.3z M-7123.2-1765.4c-0.2,0-0.4,0-0.6-0.1c-0.8-0.3-1.1-1.2-0.8-2c1-2.5,2-4.9,2.9-7.4
		c0.3-0.8,1.1-1.2,1.9-0.9c0.8,0.3,1.2,1.1,0.9,1.9c0,0,0,0,0,0.1c-0.9,2.5-1.9,5-3,7.5C-7122.1-1765.7-7122.6-1765.4-7123.2-1765.4
		L-7123.2-1765.4z M-7586.1-1793.4c-0.7,0-1.3-0.4-1.4-1.1c-0.7-2.6-1.4-5.2-2-7.8c-0.2-0.8,0.4-1.6,1.2-1.8
		c0.8-0.1,1.5,0.3,1.7,1.1c0.6,2.6,1.3,5.1,2,7.7c0.2,0.8-0.2,1.6-1,1.8C-7585.8-1793.4-7585.9-1793.4-7586.1-1793.4z
		 M-7110.2-1807.3c-0.1,0-0.2,0-0.3,0c-0.8-0.2-1.3-1-1.1-1.8c0,0,0,0,0,0c0.6-2.6,1.1-5.2,1.5-7.8c0.1-0.8,0.9-1.4,1.7-1.2
		s1.4,0.9,1.2,1.7l0,0c-0.5,2.6-1,5.3-1.6,7.9C-7108.8-1807.8-7109.5-1807.3-7110.2-1807.3L-7110.2-1807.3z M-7593.9-1836.6
		c-0.8,0-1.4-0.6-1.5-1.4c-0.2-2.7-0.4-5.3-0.6-8c0-0.8,0.6-1.5,1.4-1.6c0.8-0.1,1.5,0.5,1.6,1.3c0,0,0,0.1,0,0.1
		c0.2,2.7,0.4,5.3,0.6,7.9c0.1,0.8-0.5,1.5-1.4,1.6L-7593.9-1836.6z M-7104.8-1850.9L-7104.8-1850.9c-0.9,0-1.5-0.7-1.5-1.5
		c0,0,0,0,0,0c0.1-2.6,0.1-5.3,0.1-7.9v-0.8c0-0.8,0.6-1.5,1.5-1.5s1.5,0.6,1.5,1.5c0,0,0,0.1,0,0.1v0.8c0,2.7,0,5.4-0.1,8.1
		C-7103.4-1851.6-7104-1850.9-7104.8-1850.9L-7104.8-1850.9z M-7594-1880.5l-0.1,0c-0.8-0.1-1.4-0.8-1.4-1.6c0,0,0,0,0,0
		c0.2-2.7,0.5-5.3,0.8-8c0.1-0.8,0.8-1.4,1.7-1.3c0.8,0.1,1.4,0.8,1.3,1.7c-0.3,2.6-0.6,5.3-0.8,7.9
		C-7592.6-1881.1-7593.2-1880.5-7594-1880.5z M-7107.4-1895.6c-0.7,0-1.4-0.5-1.5-1.3c-0.4-2.6-0.8-5.2-1.3-7.8
		c-0.1-0.8,0.4-1.6,1.2-1.7c0.8-0.1,1.6,0.4,1.7,1.2l0,0c0.5,2.6,0.9,5.3,1.3,7.9c0.1,0.8-0.4,1.6-1.2,1.7c0,0,0,0,0,0
		C-7107.3-1895.6-7107.4-1895.6-7107.4-1895.6z M-7586.3-1923.8c-0.8,0-1.5-0.7-1.5-1.5c0-0.1,0-0.3,0.1-0.4
		c0.7-2.6,1.5-5.2,2.3-7.7c0.2-0.8,1.1-1.2,1.9-1c0.8,0.2,1.2,1.1,1,1.9c0,0,0,0,0,0c-0.8,2.5-1.5,5.1-2.2,7.6
		C-7585-1924.2-7585.6-1923.8-7586.3-1923.8z M-7117.8-1938.3c-0.6,0-1.2-0.4-1.4-1c-0.9-2.5-1.8-5-2.7-7.5
		c-0.3-0.8,0.1-1.6,0.9-1.9c0.8-0.3,1.6,0.1,1.9,0.9c1,2.5,1.9,5,2.7,7.6c0.3,0.8-0.1,1.6-0.9,1.9
		C-7117.5-1938.3-7117.7-1938.3-7117.8-1938.3L-7117.8-1938.3z M-7570.9-1964.9c-0.2,0-0.4,0-0.6-0.1c-0.7-0.4-1.1-1.2-0.7-2
		c0,0,0,0,0,0c1.2-2.4,2.4-4.8,3.6-7.2c0.4-0.7,1.3-1,2-0.7c0.7,0.4,1,1.3,0.7,2c0,0,0,0,0,0c-1.2,2.4-2.4,4.7-3.6,7.1
		C-7569.8-1965.3-7570.3-1964.9-7570.9-1964.9z M-7135.7-1978.4c-0.5,0-1-0.3-1.3-0.8c-1.3-2.3-2.6-4.6-4-6.9
		c-0.4-0.7-0.2-1.6,0.5-2.1c0.7-0.4,1.6-0.2,2.1,0.5c0,0,0,0,0,0.1c1.4,2.3,2.7,4.6,4,6.9c0.4,0.7,0.1,1.6-0.6,2c0,0,0,0,0,0
		C-7135.2-1978.4-7135.5-1978.4-7135.7-1978.4L-7135.7-1978.4z M-7548.4-2002.7c-0.8,0-1.5-0.7-1.5-1.5c0-0.3,0.1-0.6,0.3-0.9
		c1.6-2.2,3.2-4.3,4.8-6.4c0.5-0.6,1.5-0.8,2.1-0.2c0.6,0.5,0.8,1.4,0.3,2.1c-1.6,2.1-3.2,4.2-4.8,6.4
		C-7547.4-2002.9-7547.9-2002.7-7548.4-2002.7z M-7160.5-2014.6c-0.4,0-0.9-0.2-1.1-0.5c-1.7-2-3.4-4.1-5.2-6.1
		c-0.5-0.6-0.5-1.6,0.1-2.1c0.6-0.5,1.6-0.5,2.1,0.1l0,0c1.8,2,3.5,4.1,5.2,6.1c0.5,0.6,0.4,1.6-0.2,2.1
		C-7159.8-2014.7-7160.1-2014.6-7160.5-2014.6L-7160.5-2014.6z M-7519.5-2035.8c-0.4,0-0.8-0.2-1.1-0.5c-0.6-0.6-0.6-1.5,0-2.1
		c0,0,0,0,0,0c1.9-1.9,3.9-3.7,5.9-5.5c0.6-0.6,1.6-0.5,2.1,0.1c0.6,0.6,0.5,1.6-0.1,2.1l0,0c-2,1.8-3.9,3.6-5.8,5.4
		C-7518.7-2036-7519.1-2035.8-7519.5-2035.8L-7519.5-2035.8z M-7191.3-2045.9c-0.4,0-0.7-0.1-1-0.4c-2-1.7-4.1-3.4-6.1-5
		c-0.6-0.5-0.7-1.5-0.2-2.1c0.5-0.6,1.4-0.7,2.1-0.2c2.1,1.7,4.2,3.4,6.2,5.1c0.6,0.5,0.7,1.5,0.2,2.1
		C-7190.5-2046.1-7190.9-2045.9-7191.3-2045.9L-7191.3-2045.9z M-7485.2-2063.3c-0.8,0-1.5-0.7-1.5-1.5c0-0.5,0.2-1,0.7-1.2
		c2.2-1.5,4.5-2.9,6.8-4.3c0.7-0.5,1.6-0.3,2.1,0.4c0.5,0.7,0.3,1.6-0.4,2.1c0,0,0,0-0.1,0c-2.3,1.4-4.5,2.8-6.7,4.3
		C-7484.7-2063.4-7484.9-2063.3-7485.2-2063.3z M-7227.2-2071.2c-0.3,0-0.5-0.1-0.7-0.2c-2.3-1.3-4.6-2.6-7-3.9
		c-0.7-0.4-1-1.3-0.6-2s1.3-1,2-0.6c2.4,1.3,4.7,2.6,7,3.9c0.7,0.4,1,1.3,0.5,2C-7226.2-2071.5-7226.7-2071.2-7227.2-2071.2z
		 M-7446.6-2084.2c-0.8,0-1.5-0.7-1.5-1.5c0-0.6,0.4-1.1,0.9-1.4c2.5-1.1,4.9-2.1,7.4-3.1c0.8-0.3,1.6,0.1,1.9,0.8
		c0.3,0.8-0.1,1.6-0.8,1.9c-2.5,1-4.9,2-7.3,3C-7446.2-2084.2-7446.4-2084.2-7446.6-2084.2z M-7267.1-2089.7c-0.2,0-0.3,0-0.5-0.1
		c-2.5-0.9-5-1.8-7.5-2.6c-0.8-0.3-1.2-1.1-1-1.9c0.3-0.8,1.1-1.2,1.9-1c2.6,0.8,5.1,1.7,7.6,2.6c0.8,0.3,1.2,1.1,0.9,1.9
		C-7265.9-2090.1-7266.4-2089.7-7267.1-2089.7L-7267.1-2089.7z M-7404.9-2097.8c-0.8,0-1.5-0.7-1.5-1.5c0-0.7,0.5-1.3,1.2-1.5
		c2.6-0.6,5.2-1.2,7.9-1.7c0.8-0.2,1.6,0.4,1.8,1.2c0.2,0.8-0.4,1.6-1.2,1.8c-2.6,0.5-5.2,1.1-7.8,1.7
		C-7404.7-2097.8-7404.8-2097.8-7404.9-2097.8z M-7309.6-2100.8c-0.1,0-0.2,0-0.2,0c-2.6-0.4-5.2-0.8-7.9-1.2
		c-0.8-0.1-1.4-0.9-1.3-1.7c0,0,0,0,0,0c0.1-0.8,0.8-1.4,1.6-1.3c0,0,0,0,0,0c2.7,0.4,5.3,0.7,8,1.2c0.8,0.1,1.4,0.9,1.2,1.7
		C-7308.3-2101.3-7308.9-2100.8-7309.6-2100.8L-7309.6-2100.8z M-7361.4-2103.8c-0.8,0-1.5-0.7-1.5-1.5c0-0.8,0.6-1.5,1.4-1.5
		c2.7-0.1,5.4-0.2,8-0.2c0.8-0.1,1.5,0.5,1.5,1.3c0,0,0,0.1,0,0.1c0,0.8-0.7,1.5-1.5,1.5C-7356.1-2104-7358.7-2103.9-7361.4-2103.8
		L-7361.4-2103.8z"/>
</g>
<g id="Group_225" transform="translate(8251.326 2107)" class="st3">
	
		<radialGradient id="Ellipse_17_00000139991170626599408740000001282479473711725200_" cx="-7754.397" cy="-1147.2379" r="0.5" gradientTransform="matrix(317.002 0 0 -317.002 2450787.5 -365559.5312)" gradientUnits="userSpaceOnUse">
		<stop  offset="0.178" style="stop-color:#000000"/>
		<stop  offset="0.243" style="stop-color:#232323"/>
		<stop  offset="0.359" style="stop-color:#5D5D5D"/>
		<stop  offset="0.475" style="stop-color:#8E8E8E"/>
		<stop  offset="0.589" style="stop-color:#B7B7B7"/>
		<stop  offset="0.7" style="stop-color:#D6D6D6"/>
		<stop  offset="0.807" style="stop-color:#ECECEC"/>
		<stop  offset="0.909" style="stop-color:#FAFAFA"/>
		<stop  offset="1" style="stop-color:#FFFFFF"/>
	</radialGradient>
	
		<circle id="Ellipse_17" style="fill:url(#Ellipse_17_00000139991170626599408740000001282479473711725200_);" cx="-7371.8" cy="-1882.8" r="158.5"/>
</g>
<g id="Group_226" transform="translate(8375.35 2204)">
	
		<linearGradient id="Ellipse_18_00000003807907613792463720000009089244317982373769_" gradientUnits="userSpaceOnUse" x1="-7876.6724" y1="-1241.6477" x2="-7876.6724" y2="-1242.6477" gradientTransform="matrix(33.2035 -204.6196 -204.6196 -33.2035 -112.0622 -1654953)">
		<stop  offset="0" style="stop-color:#071A93"/>
		<stop  offset="1" style="stop-color:#6EABEC"/>
	</linearGradient>
	
		<circle id="Ellipse_18" style="fill:url(#Ellipse_18_00000003807907613792463720000009089244317982373769_);" cx="-7477.1" cy="-1988.1" r="103.6"/>
	<path id="Path_469" class="st2" d="M-7477.1-1878.5c-60.5,0-109.6-49.1-109.6-109.6c0-60.5,49.1-109.6,109.6-109.6
		c60.5,0,109.6,49.1,109.6,109.6C-7367.5-1927.6-7416.6-1878.5-7477.1-1878.5z M-7477.1-2085.8c-53.9,0-97.7,43.7-97.7,97.7
		c0,53.9,43.7,97.7,97.7,97.7c53.9,0,97.7-43.7,97.7-97.7C-7379.5-2042-7423.2-2085.7-7477.1-2085.8L-7477.1-2085.8z"/>
</g>
<g id="Group_227" transform="translate(0)" class="st0">
	
		<radialGradient id="Ellipse_19_00000104691445209991169150000007169562861831074750_" cx="494.194" cy="960.4102" r="0.5001" gradientTransform="matrix(115.6525 0 0 -115.6525 -56430 111379.8906)" gradientUnits="userSpaceOnUse">
		<stop  offset="0.178" style="stop-color:#000000"/>
		<stop  offset="0.243" style="stop-color:#232323"/>
		<stop  offset="0.359" style="stop-color:#5D5D5D"/>
		<stop  offset="0.475" style="stop-color:#8E8E8E"/>
		<stop  offset="0.589" style="stop-color:#B7B7B7"/>
		<stop  offset="0.7" style="stop-color:#D6D6D6"/>
		<stop  offset="0.807" style="stop-color:#ECECEC"/>
		<stop  offset="0.909" style="stop-color:#FAFAFA"/>
		<stop  offset="1" style="stop-color:#FFFFFF"/>
	</radialGradient>
	
		<circle id="Ellipse_19" style="fill:url(#Ellipse_19_00000104691445209991169150000007169562861831074750_);" cx="724.8" cy="306" r="57.8"/>
</g>
<g id="Group_228" transform="translate(44.853 34.893)">
	<circle id="Ellipse_20" class="st7" cx="686.8" cy="268" r="37.8"/>
	<path id="Path_470" class="st2" d="M686.8,311.8c-24.2,0-43.8-19.6-43.8-43.8c0-24.2,19.6-43.8,43.8-43.8s43.8,19.6,43.8,43.8
		C730.6,292.2,711,311.8,686.8,311.8z M686.8,236.2c-17.6,0-31.9,14.3-31.9,31.8c0,17.6,14.3,31.9,31.8,31.9
		c17.6,0,31.9-14.3,31.9-31.8c0,0,0,0,0,0C718.6,250.4,704.4,236.2,686.8,236.2z"/>
</g>
<g id="Group_230" transform="translate(8285.295 2806.583)" class="st3">
	
		<radialGradient id="Ellipse_21_00000160191129087718391130000010412048307786015414_" cx="-7788.3662" cy="-1846.8208" r="0.5002" gradientTransform="matrix(316.9234 0 0 -316.9234 2460909.5 -587217.4375)" gradientUnits="userSpaceOnUse">
		<stop  offset="0.178" style="stop-color:#000000"/>
		<stop  offset="0.243" style="stop-color:#232323"/>
		<stop  offset="0.359" style="stop-color:#5D5D5D"/>
		<stop  offset="0.475" style="stop-color:#8E8E8E"/>
		<stop  offset="0.589" style="stop-color:#B7B7B7"/>
		<stop  offset="0.7" style="stop-color:#D6D6D6"/>
		<stop  offset="0.807" style="stop-color:#ECECEC"/>
		<stop  offset="0.909" style="stop-color:#FAFAFA"/>
		<stop  offset="1" style="stop-color:#FFFFFF"/>
	</radialGradient>
	
		<circle id="Ellipse_21" style="fill:url(#Ellipse_21_00000160191129087718391130000010412048307786015414_);" cx="-7405.8" cy="-1916.8" r="158.5"/>
</g>
<linearGradient id="Ellipse_22_00000101794880437510706690000014191169377814472844_" gradientUnits="userSpaceOnUse" x1="496.508" y1="961.3484" x2="496.508" y2="960.3484" gradientTransform="matrix(190.9834 -80.6038 -80.6038 -190.9834 -16478.916 224407.3281)">
	<stop  offset="0" style="stop-color:#1A34A4"/>
	<stop  offset="1" style="stop-color:#578AD7"/>
</linearGradient>
<circle id="Ellipse_22" style="fill:url(#Ellipse_22_00000101794880437510706690000014191169377814472844_);" cx="897.8" cy="880.8" r="103.6"/>
<path id="Path_471" class="st2" d="M898.3,990.9c-60.5,0-109.6-49.1-109.6-109.6c0-60.5,49.1-109.6,109.6-109.6
	c60.5,0,109.6,49.1,109.6,109.6C1007.8,941.8,958.8,990.8,898.3,990.9z M898.3,783.6c-53.9,0-97.7,43.7-97.7,97.7
	c0,53.9,43.7,97.7,97.7,97.7c53.9,0,97.7-43.7,97.7-97.7C995.9,827.4,952.2,783.7,898.3,783.6L898.3,783.6z"/>
<g id="Group_232" transform="translate(0)" class="st0">
	
		<radialGradient id="Ellipse_23_00000083068348652106059290000000576280094768289426_" cx="494.1943" cy="960.4099" r="0.5001" gradientTransform="matrix(115.67 0 0 -115.67 -56440.9414 111883.2188)" gradientUnits="userSpaceOnUse">
		<stop  offset="0.178" style="stop-color:#000000"/>
		<stop  offset="0.243" style="stop-color:#232323"/>
		<stop  offset="0.359" style="stop-color:#5D5D5D"/>
		<stop  offset="0.475" style="stop-color:#8E8E8E"/>
		<stop  offset="0.589" style="stop-color:#B7B7B7"/>
		<stop  offset="0.7" style="stop-color:#D6D6D6"/>
		<stop  offset="0.807" style="stop-color:#ECECEC"/>
		<stop  offset="0.909" style="stop-color:#FAFAFA"/>
		<stop  offset="1" style="stop-color:#FFFFFF"/>
	</radialGradient>
	
		<circle id="Ellipse_23" style="fill:url(#Ellipse_23_00000083068348652106059290000000576280094768289426_);" cx="722.5" cy="792.6" r="57.8"/>
</g>
<g id="Group_233" transform="translate(23.804 13.845)">
	<circle id="Ellipse_24" class="st7" cx="705.6" cy="775.7" r="37.8"/>
	<path id="Path_472" class="st2" d="M705.6,819.5c-24.2,0-43.8-19.6-43.8-43.8c0-24.2,19.6-43.8,43.8-43.8s43.8,19.6,43.8,43.8
		C749.3,799.8,729.7,819.4,705.6,819.5z M705.6,743.8c-17.6,0-31.8,14.3-31.8,31.8s14.3,31.8,31.8,31.8s31.8-14.3,31.8-31.8l0,0
		C737.4,758.1,723.1,743.8,705.6,743.8L705.6,743.8z"/>
</g>
<g id="Group_235" transform="translate(8423.104 2450.812)" class="st3">
	
		<radialGradient id="Ellipse_25_00000138534921753246396000000000326758991318246797_" cx="-7926.1738" cy="-1491.0496" r="0.5" gradientTransform="matrix(317.1874 0 0 -317.1874 2506682 -474854.2188)" gradientUnits="userSpaceOnUse">
		<stop  offset="0.178" style="stop-color:#000000"/>
		<stop  offset="0.243" style="stop-color:#232323"/>
		<stop  offset="0.359" style="stop-color:#5D5D5D"/>
		<stop  offset="0.475" style="stop-color:#8E8E8E"/>
		<stop  offset="0.589" style="stop-color:#B7B7B7"/>
		<stop  offset="0.7" style="stop-color:#D6D6D6"/>
		<stop  offset="0.807" style="stop-color:#ECECEC"/>
		<stop  offset="0.909" style="stop-color:#FAFAFA"/>
		<stop  offset="1" style="stop-color:#FFFFFF"/>
	</radialGradient>
	
		<circle id="Ellipse_25" style="fill:url(#Ellipse_25_00000138534921753246396000000000326758991318246797_);" cx="-7400.9" cy="-1912" r="158.5"/>
</g>
<g id="Group_236" transform="translate(8518.568 2518.97)">
	
		<linearGradient id="Ellipse_26_00000142176751776678601230000014092660994414237093_" gradientUnits="userSpaceOnUse" x1="-8019.8774" y1="-1556.6187" x2="-8019.8774" y2="-1557.6187" gradientTransform="matrix(32.053 -204.8029 -204.8029 -32.053 -69319.6406 -1694393.25)">
		<stop  offset="0" style="stop-color:#152D9F"/>
		<stop  offset="1" style="stop-color:#639BE2"/>
	</linearGradient>
	
		<circle id="Ellipse_26" style="fill:url(#Ellipse_26_00000142176751776678601230000014092660994414237093_);" cx="-7478" cy="-1988.5" r="103.6"/>
	<path id="Path_473" class="st2" d="M-7477.6-1879c-60.5,0-109.6-49.1-109.6-109.6s49.1-109.6,109.6-109.6
		c60.5,0,109.6,49.1,109.6,109.6C-7368-1928.1-7417.1-1879-7477.6-1879z M-7477.6-2086.3c-53.9,0-97.7,43.7-97.7,97.7
		c0,53.9,43.7,97.7,97.7,97.7c53.9,0,97.7-43.7,97.7-97.7l0,0C-7380-2042.5-7423.7-2086.2-7477.6-2086.3z"/>
</g>
<g id="Group_237" transform="translate(8369.72 2576.274)" class="st0">
	
		<radialGradient id="Ellipse_27_00000155128037851175959050000007117763434647788679_" cx="-7875.5249" cy="-1615.8649" r="0.5001" gradientTransform="matrix(115.6752 2.353112e-02 2.353112e-02 -115.6752 903514.625 -188767.5312)" gradientUnits="userSpaceOnUse">
		<stop  offset="0.178" style="stop-color:#000000"/>
		<stop  offset="0.243" style="stop-color:#232323"/>
		<stop  offset="0.359" style="stop-color:#5D5D5D"/>
		<stop  offset="0.475" style="stop-color:#8E8E8E"/>
		<stop  offset="0.589" style="stop-color:#B7B7B7"/>
		<stop  offset="0.7" style="stop-color:#D6D6D6"/>
		<stop  offset="0.807" style="stop-color:#ECECEC"/>
		<stop  offset="0.909" style="stop-color:#FAFAFA"/>
		<stop  offset="1" style="stop-color:#FFFFFF"/>
	</radialGradient>
	
		<circle id="Ellipse_27" style="fill:url(#Ellipse_27_00000155128037851175959050000007117763434647788679_);" cx="-7526.4" cy="-2037.4" r="57.8"/>
</g>
<circle id="Ellipse_28" class="st7" cx="850.2" cy="535.8" r="37.8"/>
<path id="Path_474" class="st2" d="M850.2,579.6c-24.2,0-43.8-19.6-43.8-43.8c0-24.2,19.6-43.8,43.8-43.8
	c24.2,0,43.8,19.6,43.8,43.8C894,560,874.4,579.6,850.2,579.6z M850.2,504c-17.6,0-31.8,14.3-31.8,31.8s14.3,31.8,31.8,31.8
	s31.8-14.3,31.8-31.8l0,0C882,518.2,867.8,504,850.2,504z"/>
<g id="Group_243" transform="translate(8174.99 2430.469)">
	<g id="Group_240" transform="translate(6.089 5.603)">
		
			<rect id="Rectangle_48" x="-7604.6" y="-2074.7" transform="matrix(0.8386 -0.5448 0.5448 0.8386 -88.6639 -4444.7417)" width="119.6" height="4"/>
	</g>
	<g id="Group_241" transform="translate(99.679)">
		<path id="Path_475" d="M-7592.6-2105.8c3.5-2.3,8.1-1.3,10.4,2.2c2.3,3.5,1.3,8.1-2.2,10.4s-8.1,1.3-10.4-2.2c0,0,0,0,0,0
			C-7597-2098.9-7596.1-2103.5-7592.6-2105.8C-7592.6-2105.8-7592.6-2105.8-7592.6-2105.8z"/>
	</g>
	<g id="Group_242" transform="translate(0 64.735)">
		<path id="Path_476" d="M-7592.6-2105.8c-3.5,2.2-4.5,6.9-2.2,10.3c2.2,3.5,6.9,4.5,10.3,2.2c3.5-2.2,4.5-6.9,2.2-10.3c0,0,0,0,0,0
			C-7584.5-2107.1-7589.1-2108-7592.6-2105.8z"/>
	</g>
</g>
<g id="Group_247" transform="translate(8226.053 2638.431)">
	<g id="Group_244" transform="translate(7.108 5.492)">
		<rect id="Rectangle_49" x="-7596" y="-2107" width="160.4" height="4"/>
	</g>
	<g id="Group_245">
		<circle id="Ellipse_29" cx="-7588.5" cy="-2099.5" r="7.5"/>
	</g>
	<g id="Group_246" transform="translate(159.615 0.001)">
		<path id="Path_477" d="M-7588.5-2092c4.1,0,7.5-3.4,7.5-7.5c0-4.1-3.4-7.5-7.5-7.5s-7.5,3.4-7.5,7.5
			C-7596-2095.4-7592.6-2092-7588.5-2092z"/>
	</g>
</g>
<g id="Group_251" transform="translate(8181.698 2805.998)">
	<g id="Group_248" transform="translate(6.153 5.577)">
		
			<rect id="Rectangle_50" x="-7550.6" y="-2131.8" transform="matrix(0.5065 -0.8623 0.8623 0.5065 -1933.7527 -7534.4941)" width="4" height="107.6"/>
	</g>
	<g id="Group_249" transform="translate(92.16 54.13)">
		<path id="Path_478" d="M-7584.7-2106c3.6,2.1,4.8,6.7,2.7,10.2c-2.1,3.6-6.7,4.8-10.2,2.7c-3.6-2.1-4.8-6.7-2.7-10.2c0,0,0,0,0,0
			C-7592.9-2106.9-7588.3-2108.1-7584.7-2106C-7584.7-2106-7584.7-2106-7584.7-2106z"/>
	</g>
	<g id="Group_250">
		<path id="Path_479" d="M-7584.7-2106c-3.6-2.1-8.1-0.9-10.2,2.7c-2.1,3.6-0.9,8.1,2.7,10.2c3.6,2.1,8.1,0.9,10.2-2.7
			C-7580-2099.3-7581.2-2103.9-7584.7-2106z"/>
	</g>
</g>
<g id="Group_256" transform="translate(8462.836 2275.246)">
	<path id="Path_807" class="st2" d="M-7553-2025.1h-22.3c-1.4,0-2.6-1.2-2.6-2.6l0,0c0-1.4,1.2-2.6,2.6-2.6h22.3
		c1.4,0,2.6,1.2,2.6,2.6l0,0C-7550.4-2026.3-7551.6-2025.1-7553-2025.1z"/>
	<path id="Path_808" class="st2" d="M-7556.9-2016.6h-14c-1.4,0-2.6-1.2-2.6-2.6l0,0c0-1.4,1.2-2.6,2.6-2.6h14
		c1.4,0,2.6,1.2,2.6,2.6l0,0C-7554.3-2017.7-7555.4-2016.6-7556.9-2016.6z"/>
	<g id="Group_255">
		<path id="Path_809" class="st2" d="M-7552.4-2032.5h-23.7c-1.1,0-1.9-0.9-1.9-1.9c0,0,0,0,0,0c0-6.6-2.8-12.9-7.6-17.4
			c-12.9-11.8-13.8-31.9-2-44.8s31.9-13.8,44.8-2s13.8,31.9,2,44.8c-0.6,0.7-1.3,1.3-2,2c-4.8,4.5-7.6,10.8-7.6,17.4
			C-7550.4-2033.4-7551.3-2032.5-7552.4-2032.5L-7552.4-2032.5z M-7574.3-2036.4h20c0.5-7,3.7-13.5,8.8-18.3
			c11.3-10.4,12.1-28,1.7-39.3c-10.4-11.3-28-12.1-39.3-1.7c-11.3,10.4-12.1,28-1.7,39.3c0.5,0.6,1.1,1.2,1.7,1.7
			C-7577.9-2050-7574.8-2043.4-7574.3-2036.4z"/>
	</g>
	<path id="Path_810" class="st2" d="M-7573-2089c-7.9,4.4-10.8,14.4-6.4,22.4c0.6,1.1,0.2,2.4-0.9,3c-1.1,0.6-2.4,0.2-3-0.9
		c-5.6-10.1-2-22.8,8.1-28.4c1-0.6,2.4-0.3,3.1,0.7c0.6,1,0.3,2.4-0.7,3.1C-7572.9-2089.1-7572.9-2089.1-7573-2089z"/>
</g>
<path id="Path_811" class="st2" d="M1018.9,552.8l12.8-12.8l5.4,5.4l24.9-24.9l4.2,4.2l1.6-9.9l0.5-0.5l-0.3-0.3l1.2-7.4l-18.2,3
	l4.7,4.7l-18.6,18.6l-5.4-5.4L1018,541v-41h-7.9v60.7h60.7v-7.9L1018.9,552.8z"/>
<g>
	<text transform="matrix(1 0 0 1 263.92 550.8771)" class="st14 st15 st16">UX</text>
	<text transform="matrix(1 0 0 1 197.8512 621.1421)" class="st14 st17 st18">Stratergy</text>
</g>
<g>
	<g class="st19">
		<path class="st20" d="M1070.3,151.6V183h-6.3v-13.4h-13.5V183h-6.3v-31.4h6.3v12.9h13.5v-12.9H1070.3z"/>
		<path class="st20" d="M1104.5,158.1V183h-6.3v-3.2c-0.8,1.1-1.9,1.9-3.2,2.5c-1.3,0.6-2.7,0.9-4.3,0.9c-2,0-3.7-0.4-5.2-1.2
			c-1.5-0.8-2.7-2-3.5-3.6c-0.9-1.6-1.3-3.5-1.3-5.7v-14.6h6.3v13.7c0,2,0.5,3.5,1.5,4.6c1,1.1,2.3,1.6,4,1.6c1.7,0,3.1-0.5,4.1-1.6
			c1-1.1,1.5-2.6,1.5-4.6v-13.7H1104.5z"/>
		<path class="st20" d="M1153.6,160.5c1.9,1.9,2.8,4.5,2.8,7.9V183h-6.3v-13.8c0-2-0.5-3.4-1.5-4.5c-1-1-2.3-1.6-4.1-1.6
			c-1.7,0-3.1,0.5-4.1,1.6c-1,1-1.5,2.5-1.5,4.5V183h-6.3v-13.8c0-2-0.5-3.4-1.5-4.5c-1-1-2.3-1.6-4-1.6c-1.7,0-3.1,0.5-4.1,1.6
			c-1,1-1.5,2.5-1.5,4.5V183h-6.3v-24.9h6.3v3c0.8-1,1.9-1.9,3.1-2.5s2.7-0.9,4.2-0.9c2,0,3.7,0.4,5.2,1.2c1.5,0.8,2.7,2,3.6,3.5
			c0.8-1.4,2-2.6,3.5-3.5c1.5-0.9,3.2-1.3,5-1.3C1149.2,157.7,1151.7,158.6,1153.6,160.5z"/>
		<path class="st20" d="M1166.8,163.7c1-2,2.4-3.5,4.1-4.5c1.7-1,3.7-1.6,5.8-1.6c1.9,0,3.5,0.4,4.9,1.1c1.4,0.8,2.5,1.7,3.4,2.8
			v-3.6h6.3V183h-6.3v-3.6c-0.8,1.2-1.9,2.1-3.4,2.9c-1.4,0.8-3.1,1.1-4.9,1.1c-2.1,0-4-0.5-5.7-1.6c-1.7-1.1-3.1-2.6-4.1-4.6
			c-1-2-1.5-4.2-1.5-6.8C1165.3,167.9,1165.8,165.7,1166.8,163.7z M1184,166.6c-0.6-1.1-1.4-1.9-2.4-2.5c-1-0.6-2.1-0.9-3.3-0.9
			s-2.2,0.3-3.2,0.9c-1,0.6-1.8,1.4-2.4,2.5c-0.6,1.1-0.9,2.4-0.9,3.9s0.3,2.8,0.9,3.9s1.4,2,2.4,2.6c1,0.6,2.1,0.9,3.2,0.9
			c1.2,0,2.3-0.3,3.3-0.9c1-0.6,1.8-1.4,2.4-2.5c0.6-1.1,0.9-2.4,0.9-3.9S1184.6,167.7,1184,166.6z"/>
		<path class="st20" d="M1222.9,160.5c1.8,1.9,2.7,4.5,2.7,7.9V183h-6.3v-13.8c0-2-0.5-3.5-1.5-4.6c-1-1.1-2.3-1.6-4.1-1.6
			c-1.7,0-3.1,0.5-4.1,1.6c-1,1.1-1.5,2.6-1.5,4.6V183h-6.3v-24.9h6.3v3.1c0.8-1.1,1.9-1.9,3.2-2.5c1.3-0.6,2.7-0.9,4.3-0.9
			C1218.7,157.7,1221.1,158.6,1222.9,160.5z"/>
		<path class="st20" d="M1050.5,210.7v7.9h10.6v5h-10.6v8.3h11.9v5.1h-18.2v-31.5h18.2v5.1H1050.5z"/>
		<path class="st20" d="M1079,203.7V237h-6.3v-33.3H1079z"/>
		<path class="st20" d="M1112.7,226.4h-18.2c0.1,1.8,0.8,3.2,1.9,4.2c1.1,1,2.5,1.5,4.1,1.5c2.3,0,4-1,5-3h6.8
			c-0.7,2.4-2.1,4.4-4.1,5.9c-2,1.5-4.5,2.3-7.5,2.3c-2.4,0-4.6-0.5-6.5-1.6c-1.9-1.1-3.4-2.6-4.5-4.5c-1.1-2-1.6-4.2-1.6-6.8
			c0-2.6,0.5-4.8,1.6-6.8s2.5-3.5,4.4-4.5s4.1-1.6,6.5-1.6c2.4,0,4.5,0.5,6.4,1.5s3.3,2.5,4.4,4.3c1,1.9,1.6,4,1.6,6.5
			C1112.8,224.9,1112.8,225.7,1112.7,226.4z M1106.3,222.2c0-1.6-0.6-2.9-1.8-3.9c-1.1-1-2.5-1.5-4.2-1.5c-1.6,0-2.9,0.5-3.9,1.4
			c-1.1,0.9-1.7,2.3-2,3.9H1106.3z"/>
		<path class="st20" d="M1160.3,214.5c1.9,1.9,2.8,4.5,2.8,7.9V237h-6.3v-13.8c0-2-0.5-3.4-1.5-4.5c-1-1-2.3-1.6-4.1-1.6
			s-3.1,0.5-4.1,1.6c-1,1-1.5,2.5-1.5,4.5V237h-6.3v-13.8c0-2-0.5-3.4-1.5-4.5c-1-1-2.3-1.6-4-1.6c-1.7,0-3.1,0.5-4.1,1.6
			c-1,1-1.5,2.5-1.5,4.5V237h-6.3v-24.9h6.3v3c0.8-1,1.9-1.9,3.1-2.5c1.3-0.6,2.7-0.9,4.2-0.9c2,0,3.7,0.4,5.2,1.2
			c1.5,0.8,2.7,2,3.6,3.5c0.8-1.4,2-2.6,3.5-3.5c1.5-0.9,3.2-1.3,5-1.3C1156,211.7,1158.4,212.6,1160.3,214.5z"/>
		<path class="st20" d="M1196.6,226.4h-18.2c0.2,1.8,0.8,3.2,1.9,4.2c1.1,1,2.5,1.5,4.1,1.5c2.3,0,4-1,5-3h6.8
			c-0.7,2.4-2.1,4.4-4.1,5.9s-4.5,2.3-7.5,2.3c-2.4,0-4.6-0.5-6.5-1.6c-1.9-1.1-3.4-2.6-4.5-4.5s-1.6-4.2-1.6-6.8
			c0-2.6,0.5-4.8,1.6-6.8c1-2,2.5-3.5,4.4-4.5c1.9-1,4.1-1.6,6.5-1.6c2.4,0,4.5,0.5,6.4,1.5c1.9,1,3.3,2.5,4.4,4.3
			c1,1.9,1.6,4,1.6,6.5C1196.8,224.9,1196.7,225.7,1196.6,226.4z M1190.2,222.2c0-1.6-0.6-2.9-1.8-3.9c-1.1-1-2.5-1.5-4.2-1.5
			c-1.6,0-2.9,0.5-3.9,1.4c-1.1,0.9-1.7,2.3-2,3.9H1190.2z"/>
		<path class="st20" d="M1226.9,214.5c1.8,1.9,2.7,4.5,2.7,7.9V237h-6.3v-13.8c0-2-0.5-3.5-1.5-4.6c-1-1.1-2.3-1.6-4-1.6
			c-1.7,0-3.1,0.5-4.1,1.6c-1,1.1-1.5,2.6-1.5,4.6V237h-6.3v-24.9h6.3v3.1c0.8-1.1,1.9-1.9,3.2-2.5s2.7-0.9,4.3-0.9
			C1222.6,211.7,1225,212.6,1226.9,214.5z"/>
		<path class="st20" d="M1247.4,217.2v12.1c0,0.8,0.2,1.4,0.6,1.8c0.4,0.4,1.1,0.6,2,0.6h2.9v5.3h-4c-5.3,0-8-2.6-8-7.7v-12h-3v-5.2
			h3v-6.2h6.3v6.2h5.6v5.2H1247.4z"/>
		<path class="st20" d="M1266.1,236.3c-1.6-0.7-2.9-1.7-3.8-3c-0.9-1.3-1.5-2.7-1.6-4.2h6.3c0.1,1,0.6,1.8,1.4,2.4
			c0.8,0.6,1.9,0.9,3.1,0.9c1.2,0,2.1-0.2,2.8-0.7c0.7-0.5,1-1.1,1-1.8c0-0.8-0.4-1.4-1.2-1.8c-0.8-0.4-2.1-0.8-3.9-1.3
			c-1.9-0.5-3.4-0.9-4.6-1.4c-1.2-0.5-2.2-1.2-3.1-2.2c-0.9-1-1.3-2.3-1.3-4c0-1.4,0.4-2.6,1.2-3.8c0.8-1.1,1.9-2,3.4-2.7
			c1.5-0.7,3.2-1,5.2-1c3,0,5.3,0.7,7.1,2.2s2.7,3.5,2.9,6h-6c-0.1-1-0.5-1.8-1.2-2.4c-0.7-0.6-1.7-0.9-2.9-0.9
			c-1.1,0-2,0.2-2.6,0.6c-0.6,0.4-0.9,1-0.9,1.8c0,0.8,0.4,1.5,1.3,1.9c0.8,0.4,2.1,0.9,3.9,1.3c1.8,0.5,3.3,0.9,4.5,1.4
			c1.2,0.5,2.2,1.2,3,2.2c0.9,1,1.3,2.3,1.3,4c0,1.4-0.4,2.7-1.2,3.9c-0.8,1.1-1.9,2-3.4,2.7c-1.5,0.6-3.2,1-5.2,1
			C1269.6,237.4,1267.7,237,1266.1,236.3z"/>
	</g>
	<g class="st19">
		<path class="st20" d="M1206.5,493.6c2.5,1.3,4.4,3.1,5.8,5.5c1.4,2.4,2,5.2,2,8.3c0,3.2-0.7,5.9-2,8.3c-1.4,2.4-3.3,4.2-5.8,5.5
			c-2.5,1.3-5.4,1.9-8.7,1.9h-11v-31.4h11C1201,491.7,1203.9,492.3,1206.5,493.6z M1205.2,515c1.8-1.8,2.7-4.3,2.7-7.6
			c0-3.3-0.9-5.8-2.7-7.7c-1.8-1.8-4.3-2.8-7.7-2.8h-4.5v20.7h4.5C1200.8,517.7,1203.4,516.8,1205.2,515z"/>
		<path class="st20" d="M1246.5,512.5h-18.2c0.1,1.8,0.8,3.2,1.9,4.2s2.5,1.5,4.1,1.5c2.3,0,4-1,5-3h6.8c-0.7,2.4-2.1,4.4-4.1,5.9
			s-4.5,2.3-7.5,2.3c-2.4,0-4.6-0.5-6.5-1.6c-1.9-1.1-3.4-2.6-4.5-4.5c-1.1-2-1.6-4.2-1.6-6.8c0-2.6,0.5-4.8,1.6-6.8
			c1.1-2,2.5-3.5,4.4-4.5c1.9-1,4.1-1.6,6.5-1.6c2.4,0,4.5,0.5,6.4,1.5s3.3,2.5,4.4,4.3c1,1.9,1.6,4,1.6,6.5
			C1246.7,511,1246.6,511.8,1246.5,512.5z M1240.2,508.3c0-1.6-0.6-2.9-1.8-3.9c-1.1-1-2.5-1.5-4.2-1.5c-1.6,0-2.9,0.5-3.9,1.4
			c-1.1,0.9-1.7,2.3-2,3.9H1240.2z"/>
		<path class="st20" d="M1259.8,522.4c-1.6-0.7-2.9-1.7-3.8-3c-0.9-1.3-1.5-2.7-1.6-4.2h6.3c0.1,1,0.6,1.8,1.4,2.4
			c0.8,0.6,1.9,0.9,3.1,0.9c1.2,0,2.1-0.2,2.8-0.7c0.7-0.5,1-1.1,1-1.8c0-0.8-0.4-1.4-1.2-1.8c-0.8-0.4-2.1-0.8-3.9-1.3
			c-1.9-0.5-3.4-0.9-4.6-1.4c-1.2-0.5-2.2-1.2-3.1-2.2c-0.9-1-1.3-2.3-1.3-4c0-1.4,0.4-2.6,1.2-3.8c0.8-1.1,1.9-2,3.4-2.7
			c1.5-0.7,3.2-1,5.2-1c3,0,5.3,0.7,7.1,2.2s2.7,3.5,2.9,6h-6c-0.1-1-0.5-1.8-1.2-2.4c-0.7-0.6-1.7-0.9-2.9-0.9
			c-1.1,0-2,0.2-2.6,0.6c-0.6,0.4-0.9,1-0.9,1.8c0,0.8,0.4,1.5,1.3,1.9c0.8,0.4,2.1,0.9,3.9,1.3c1.8,0.5,3.3,0.9,4.5,1.4
			c1.2,0.5,2.2,1.2,3,2.2c0.9,1,1.3,2.3,1.3,4c0,1.4-0.4,2.7-1.2,3.9c-0.8,1.1-1.9,2-3.4,2.7c-1.5,0.6-3.2,1-5.2,1
			C1263.3,523.5,1261.5,523.1,1259.8,522.4z"/>
		<path class="st20" d="M1285.2,494.1c-0.7-0.7-1.1-1.6-1.1-2.6c0-1,0.4-1.9,1.1-2.6c0.7-0.7,1.7-1.1,2.8-1.1c1.1,0,2,0.4,2.8,1.1
			c0.7,0.7,1.1,1.6,1.1,2.6c0,1.1-0.4,1.9-1.1,2.6c-0.7,0.7-1.7,1.1-2.8,1.1C1286.9,495.2,1286,494.8,1285.2,494.1z M1291.1,498.1
			v24.9h-6.3v-24.9H1291.1z"/>
		<path class="st20" d="M1311.3,498.9c1.3-0.7,2.8-1.1,4.5-1.1v6.6h-1.7c-2,0-3.5,0.5-4.5,1.4c-1,0.9-1.5,2.6-1.5,4.9v12.4h-6.3
			v-24.9h6.3v3.9C1308.9,500.7,1310,499.7,1311.3,498.9z"/>
		<path class="st20" d="M1347.5,512.5h-18.2c0.1,1.8,0.8,3.2,1.9,4.2c1.1,1,2.5,1.5,4.1,1.5c2.3,0,4-1,5-3h6.8
			c-0.7,2.4-2.1,4.4-4.1,5.9c-2,1.5-4.5,2.3-7.5,2.3c-2.4,0-4.6-0.5-6.5-1.6c-1.9-1.1-3.4-2.6-4.5-4.5c-1.1-2-1.6-4.2-1.6-6.8
			c0-2.6,0.5-4.8,1.6-6.8s2.5-3.5,4.4-4.5s4.1-1.6,6.5-1.6c2.4,0,4.5,0.5,6.4,1.5s3.3,2.5,4.4,4.3c1,1.9,1.6,4,1.6,6.5
			C1347.7,511,1347.6,511.8,1347.5,512.5z M1341.2,508.3c0-1.6-0.6-2.9-1.8-3.9c-1.1-1-2.5-1.5-4.2-1.5c-1.6,0-2.9,0.5-3.9,1.4
			c-1.1,0.9-1.7,2.3-2,3.9H1341.2z"/>
		<path class="st20" d="M1356.7,503.8c1-2,2.4-3.5,4.1-4.5c1.7-1,3.7-1.6,5.8-1.6c1.6,0,3.2,0.4,4.6,1.1c1.5,0.7,2.6,1.6,3.5,2.8
			v-11.8h6.4v33.3h-6.4v-3.7c-0.8,1.2-1.9,2.2-3.3,3c-1.4,0.7-3,1.1-4.9,1.1c-2.1,0-4-0.5-5.8-1.6c-1.7-1.1-3.1-2.6-4.1-4.6
			c-1-2-1.5-4.2-1.5-6.8C1355.2,508,1355.7,505.8,1356.7,503.8z M1373.9,506.7c-0.6-1.1-1.4-1.9-2.4-2.5s-2.1-0.9-3.3-0.9
			s-2.2,0.3-3.2,0.9c-1,0.6-1.8,1.4-2.4,2.5c-0.6,1.1-0.9,2.4-0.9,3.9s0.3,2.8,0.9,3.9c0.6,1.1,1.4,2,2.4,2.6c1,0.6,2.1,0.9,3.2,0.9
			c1.2,0,2.3-0.3,3.3-0.9s1.8-1.4,2.4-2.5c0.6-1.1,0.9-2.4,0.9-3.9S1374.5,507.8,1373.9,506.7z"/>
		<path class="st20" d="M1193.2,575.3c-2.5-1.4-4.4-3.3-5.9-5.7c-1.4-2.4-2.2-5.2-2.2-8.3c0-3.1,0.7-5.8,2.2-8.3
			c1.4-2.4,3.4-4.4,5.9-5.7s5.2-2.1,8.1-2.1c3,0,5.7,0.7,8.1,2.1c2.4,1.4,4.4,3.3,5.8,5.7c1.4,2.4,2.1,5.2,2.1,8.3
			c0,3.1-0.7,5.9-2.1,8.3s-3.4,4.4-5.8,5.7c-2.5,1.4-5.2,2.1-8.1,2.1C1198.4,577.4,1195.7,576.7,1193.2,575.3z M1206.3,570.5
			c1.4-0.9,2.6-2.1,3.4-3.7c0.8-1.6,1.2-3.4,1.2-5.5c0-2.1-0.4-3.9-1.2-5.5c-0.8-1.6-1.9-2.8-3.4-3.6c-1.4-0.8-3.1-1.3-5-1.3
			c-1.9,0-3.6,0.4-5,1.3c-1.5,0.8-2.6,2-3.4,3.6c-0.8,1.6-1.2,3.4-1.2,5.5c0,2.1,0.4,3.9,1.2,5.5c0.8,1.6,1.9,2.8,3.4,3.7
			c1.5,0.9,3.1,1.3,5,1.3C1203.2,571.8,1204.9,571.3,1206.3,570.5z"/>
		<path class="st20" d="M1250.1,552.1v24.9h-6.3v-3.2c-0.8,1.1-1.9,1.9-3.2,2.5s-2.7,0.9-4.3,0.9c-2,0-3.7-0.4-5.2-1.2
			c-1.5-0.8-2.7-2-3.5-3.6c-0.9-1.6-1.3-3.5-1.3-5.7v-14.6h6.3v13.7c0,2,0.5,3.5,1.5,4.6c1,1.1,2.3,1.6,4,1.6c1.7,0,3.1-0.5,4.1-1.6
			c1-1.1,1.5-2.6,1.5-4.6v-13.7H1250.1z"/>
		<path class="st20" d="M1268.2,557.3v12.1c0,0.8,0.2,1.4,0.6,1.8c0.4,0.4,1.1,0.6,2,0.6h2.9v5.3h-4c-5.3,0-8-2.6-8-7.7v-12h-3v-5.2
			h3V546h6.3v6.2h5.6v5.2H1268.2z"/>
		<path class="st20" d="M1282.7,557.8c1-1.9,2.5-3.4,4.4-4.5c1.9-1.1,4-1.6,6.4-1.6c3.1,0,5.6,0.8,7.7,2.3c2,1.5,3.4,3.7,4.1,6.5
			h-6.8c-0.4-1.1-1-1.9-1.8-2.5c-0.9-0.6-1.9-0.9-3.2-0.9c-1.8,0-3.2,0.7-4.3,2s-1.6,3.2-1.6,5.6c0,2.4,0.5,4.2,1.6,5.5
			c1.1,1.3,2.5,2,4.3,2c2.5,0,4.2-1.1,5-3.4h6.8c-0.7,2.7-2.1,4.8-4.1,6.4c-2,1.6-4.6,2.4-7.7,2.4c-2.4,0-4.5-0.5-6.4-1.6
			c-1.9-1.1-3.3-2.6-4.4-4.5c-1-1.9-1.6-4.2-1.6-6.8S1281.7,559.8,1282.7,557.8z"/>
		<path class="st20" d="M1319,575.9c-1.9-1.1-3.4-2.6-4.5-4.5c-1.1-2-1.6-4.2-1.6-6.8s0.6-4.8,1.7-6.8s2.7-3.5,4.6-4.5
			c2-1.1,4.1-1.6,6.5-1.6s4.6,0.5,6.5,1.6c1.9,1.1,3.5,2.6,4.6,4.5s1.7,4.2,1.7,6.8s-0.6,4.8-1.7,6.8s-2.7,3.5-4.7,4.5
			c-2,1.1-4.2,1.6-6.6,1.6C1323.1,577.5,1320.9,576.9,1319,575.9z M1328.7,571.2c1-0.6,1.8-1.4,2.4-2.5c0.6-1.1,0.9-2.5,0.9-4
			c0-2.4-0.6-4.2-1.9-5.5c-1.2-1.3-2.8-1.9-4.6-1.9c-1.8,0-3.3,0.6-4.5,1.9c-1.2,1.3-1.8,3.1-1.8,5.5s0.6,4.2,1.8,5.5
			s2.7,1.9,4.5,1.9C1326.6,572,1327.7,571.7,1328.7,571.2z"/>
		<path class="st20" d="M1386,554.6c1.9,1.9,2.8,4.5,2.8,7.9v14.6h-6.3v-13.8c0-2-0.5-3.4-1.5-4.5c-1-1-2.3-1.6-4-1.6
			s-3.1,0.5-4.1,1.6c-1,1-1.5,2.5-1.5,4.5v13.8h-6.3v-13.8c0-2-0.5-3.4-1.5-4.5c-1-1-2.3-1.6-4.1-1.6c-1.7,0-3.1,0.5-4.1,1.6
			c-1,1-1.5,2.5-1.5,4.5v13.8h-6.3v-24.9h6.3v3c0.8-1,1.9-1.9,3.1-2.5c1.3-0.6,2.7-0.9,4.2-0.9c1.9,0,3.7,0.4,5.2,1.2
			c1.5,0.8,2.7,2,3.6,3.5c0.8-1.4,2-2.6,3.5-3.5c1.5-0.9,3.2-1.3,5-1.3C1381.6,551.8,1384.1,552.7,1386,554.6z"/>
		<path class="st20" d="M1422.2,566.5H1404c0.2,1.8,0.8,3.2,1.9,4.2c1.1,1,2.5,1.5,4.1,1.5c2.3,0,4-1,5-3h6.8
			c-0.7,2.4-2.1,4.4-4.1,5.9c-2,1.5-4.5,2.3-7.5,2.3c-2.4,0-4.6-0.5-6.5-1.6c-1.9-1.1-3.4-2.6-4.5-4.5c-1.1-2-1.6-4.2-1.6-6.8
			c0-2.6,0.5-4.8,1.6-6.8c1-2,2.5-3.5,4.4-4.5c1.9-1,4.1-1.6,6.5-1.6c2.4,0,4.5,0.5,6.4,1.5c1.9,1,3.3,2.5,4.4,4.3
			c1,1.9,1.6,4,1.6,6.5C1422.4,565,1422.4,565.8,1422.2,566.5z M1415.9,562.3c0-1.6-0.6-2.9-1.8-3.9s-2.5-1.5-4.2-1.5
			c-1.6,0-2.9,0.5-3.9,1.4c-1.1,0.9-1.7,2.3-2,3.9H1415.9z"/>
		<path class="st20" d="M1435.6,576.4c-1.6-0.7-2.9-1.7-3.8-3c-0.9-1.3-1.5-2.7-1.6-4.2h6.3c0.1,1,0.6,1.8,1.4,2.4
			c0.8,0.6,1.9,0.9,3.1,0.9c1.2,0,2.1-0.2,2.8-0.7c0.7-0.5,1-1.1,1-1.8c0-0.8-0.4-1.4-1.2-1.8c-0.8-0.4-2.1-0.8-3.9-1.3
			c-1.9-0.5-3.4-0.9-4.6-1.4c-1.2-0.5-2.2-1.2-3.1-2.2c-0.9-1-1.3-2.3-1.3-4c0-1.4,0.4-2.6,1.2-3.8c0.8-1.1,1.9-2,3.4-2.7
			s3.2-1,5.2-1c3,0,5.3,0.7,7.1,2.2c1.8,1.5,2.7,3.5,2.9,6h-6c-0.1-1-0.5-1.8-1.2-2.4s-1.7-0.9-2.9-0.9c-1.1,0-2,0.2-2.6,0.6
			c-0.6,0.4-0.9,1-0.9,1.8c0,0.8,0.4,1.5,1.3,1.9c0.8,0.4,2.1,0.9,3.9,1.3c1.8,0.5,3.3,0.9,4.5,1.4c1.2,0.5,2.2,1.2,3,2.2
			c0.9,1,1.3,2.3,1.3,4c0,1.4-0.4,2.7-1.2,3.9c-0.8,1.1-1.9,2-3.4,2.7c-1.5,0.6-3.2,1-5.2,1C1439,577.5,1437.2,577.1,1435.6,576.4z"
			/>
	</g>
	<g class="st19">
		<path class="st20" d="M1067.1,863.3v31.4h-6.3v-31.4H1067.1z"/>
		<path class="st20" d="M1098.8,872.2c1.8,1.9,2.7,4.5,2.7,7.9v14.6h-6.3V881c0-2-0.5-3.5-1.5-4.6c-1-1.1-2.3-1.6-4.1-1.6
			c-1.7,0-3.1,0.5-4.1,1.6c-1,1.1-1.5,2.6-1.5,4.6v13.8h-6.3v-24.9h6.3v3.1c0.8-1.1,1.9-1.9,3.2-2.5c1.3-0.6,2.7-0.9,4.3-0.9
			C1094.6,869.4,1097,870.4,1098.8,872.2z"/>
		<path class="st20" d="M1123.5,875h-4.4v19.8h-6.4V875h-2.8v-5.2h2.8v-1.3c0-3.1,0.9-5.3,2.6-6.8c1.7-1.4,4.4-2.1,7.9-2v5.3
			c-1.5,0-2.6,0.2-3.2,0.8c-0.6,0.5-0.9,1.5-0.9,2.9v1h4.4V875z"/>
		<path class="st20" d="M1136.7,893.5c-1.9-1.1-3.4-2.6-4.5-4.5c-1.1-2-1.6-4.2-1.6-6.8s0.6-4.8,1.7-6.8s2.7-3.5,4.6-4.5
			c1.9-1.1,4.1-1.6,6.5-1.6c2.4,0,4.6,0.5,6.5,1.6c2,1.1,3.5,2.6,4.6,4.5s1.7,4.2,1.7,6.8s-0.6,4.8-1.7,6.8s-2.7,3.5-4.7,4.5
			c-2,1.1-4.2,1.6-6.6,1.6C1140.7,895.1,1138.6,894.6,1136.7,893.5z M1146.4,888.8c1-0.6,1.8-1.4,2.4-2.5c0.6-1.1,0.9-2.5,0.9-4
			c0-2.4-0.6-4.2-1.9-5.5c-1.2-1.3-2.8-1.9-4.6-1.9c-1.8,0-3.3,0.6-4.5,1.9c-1.2,1.3-1.8,3.1-1.8,5.5s0.6,4.2,1.8,5.5
			s2.7,1.9,4.5,1.9C1144.3,889.6,1145.4,889.4,1146.4,888.8z"/>
		<path class="st20" d="M1174.8,870.6c1.3-0.7,2.8-1.1,4.5-1.1v6.6h-1.7c-2,0-3.5,0.5-4.5,1.4c-1,0.9-1.5,2.6-1.5,4.9v12.4h-6.3
			v-24.9h6.3v3.9C1172.4,872.3,1173.5,871.3,1174.8,870.6z"/>
		<path class="st20" d="M1226.3,872.2c1.9,1.9,2.8,4.5,2.8,7.9v14.6h-6.3V881c0-2-0.5-3.4-1.5-4.5c-1-1-2.3-1.6-4-1.6
			c-1.7,0-3.1,0.5-4.1,1.6c-1,1-1.5,2.5-1.5,4.5v13.8h-6.3V881c0-2-0.5-3.4-1.5-4.5c-1-1-2.3-1.6-4.1-1.6c-1.7,0-3.1,0.5-4.1,1.6
			c-1,1-1.5,2.5-1.5,4.5v13.8h-6.3v-24.9h6.3v3c0.8-1,1.9-1.9,3.1-2.5c1.3-0.6,2.7-0.9,4.2-0.9c1.9,0,3.7,0.4,5.2,1.2
			c1.5,0.8,2.7,2,3.6,3.5c0.8-1.4,2-2.6,3.5-3.5c1.5-0.9,3.2-1.3,5-1.3C1222,869.4,1224.5,870.4,1226.3,872.2z"/>
		<path class="st20" d="M1239.5,875.5c1-2,2.4-3.5,4.1-4.5s3.7-1.6,5.8-1.6c1.9,0,3.5,0.4,4.9,1.1s2.5,1.7,3.4,2.8v-3.6h6.3v24.9
			h-6.3v-3.6c-0.8,1.2-1.9,2.1-3.4,2.9c-1.4,0.8-3.1,1.1-4.9,1.1c-2.1,0-4-0.5-5.7-1.6s-3.1-2.6-4.1-4.6c-1-2-1.5-4.2-1.5-6.8
			C1238,879.7,1238.5,877.4,1239.5,875.5z M1256.7,878.3c-0.6-1.1-1.4-1.9-2.4-2.5c-1-0.6-2.1-0.9-3.3-0.9c-1.2,0-2.2,0.3-3.2,0.9
			c-1,0.6-1.8,1.4-2.4,2.5c-0.6,1.1-0.9,2.4-0.9,3.9s0.3,2.8,0.9,3.9s1.4,2,2.4,2.6c1,0.6,2.1,0.9,3.2,0.9c1.2,0,2.3-0.3,3.3-0.9
			c1-0.6,1.8-1.4,2.4-2.5c0.6-1.1,0.9-2.4,0.9-3.9S1257.3,879.4,1256.7,878.3z"/>
		<path class="st20" d="M1282,875V887c0,0.8,0.2,1.4,0.6,1.8c0.4,0.4,1.1,0.6,2,0.6h2.9v5.3h-4c-5.3,0-8-2.6-8-7.7v-12h-3v-5.2h3
			v-6.2h6.3v6.2h5.6v5.2H1282z"/>
		<path class="st20" d="M1297,865.8c-0.7-0.7-1.1-1.6-1.1-2.6c0-1,0.4-1.9,1.1-2.6c0.7-0.7,1.7-1.1,2.8-1.1s2,0.4,2.8,1.1
			c0.7,0.7,1.1,1.6,1.1,2.6c0,1.1-0.4,1.9-1.1,2.6s-1.7,1.1-2.8,1.1S1297.8,866.5,1297,865.8z M1302.9,869.8v24.9h-6.3v-24.9H1302.9
			z"/>
		<path class="st20" d="M1318.2,893.5c-1.9-1.1-3.4-2.6-4.5-4.5c-1.1-2-1.6-4.2-1.6-6.8s0.6-4.8,1.7-6.8s2.7-3.5,4.6-4.5
			c1.9-1.1,4.1-1.6,6.5-1.6c2.4,0,4.6,0.5,6.5,1.6c2,1.1,3.5,2.6,4.6,4.5s1.7,4.2,1.7,6.8s-0.6,4.8-1.7,6.8s-2.7,3.5-4.7,4.5
			c-2,1.1-4.2,1.6-6.6,1.6C1322.3,895.1,1320.1,894.6,1318.2,893.5z M1327.9,888.8c1-0.6,1.8-1.4,2.4-2.5c0.6-1.1,0.9-2.5,0.9-4
			c0-2.4-0.6-4.2-1.9-5.5c-1.2-1.3-2.8-1.9-4.6-1.9c-1.8,0-3.3,0.6-4.5,1.9c-1.2,1.3-1.8,3.1-1.8,5.5s0.6,4.2,1.8,5.5
			s2.7,1.9,4.5,1.9C1325.8,889.6,1326.9,889.4,1327.9,888.8z"/>
		<path class="st20" d="M1367.8,872.2c1.8,1.9,2.7,4.5,2.7,7.9v14.6h-6.3V881c0-2-0.5-3.5-1.5-4.6c-1-1.1-2.3-1.6-4-1.6
			c-1.7,0-3.1,0.5-4.1,1.6c-1,1.1-1.5,2.6-1.5,4.6v13.8h-6.3v-24.9h6.3v3.1c0.8-1.1,1.9-1.9,3.2-2.5s2.7-0.9,4.3-0.9
			C1363.6,869.4,1366,870.4,1367.8,872.2z"/>
		<path class="st20" d="M1380.9,875.5c1-2,2.4-3.5,4.1-4.5c1.7-1,3.7-1.6,5.8-1.6c1.9,0,3.5,0.4,4.9,1.1c1.4,0.8,2.5,1.7,3.4,2.8
			v-3.6h6.3v24.9h-6.3v-3.6c-0.8,1.2-1.9,2.1-3.4,2.9c-1.4,0.8-3.1,1.1-4.9,1.1c-2.1,0-4-0.5-5.7-1.6c-1.7-1.1-3.1-2.6-4.1-4.6
			s-1.5-4.2-1.5-6.8C1379.4,879.7,1379.9,877.4,1380.9,875.5z M1398.2,878.3c-0.6-1.1-1.4-1.9-2.4-2.5c-1-0.6-2.1-0.9-3.3-0.9
			s-2.2,0.3-3.2,0.9c-1,0.6-1.8,1.4-2.4,2.5c-0.6,1.1-0.9,2.4-0.9,3.9s0.3,2.8,0.9,3.9c0.6,1.1,1.4,2,2.4,2.6c1,0.6,2.1,0.9,3.2,0.9
			c1.2,0,2.3-0.3,3.3-0.9c1-0.6,1.8-1.4,2.4-2.5c0.6-1.1,0.9-2.4,0.9-3.9S1398.8,879.4,1398.2,878.3z"/>
		<path class="st20" d="M1422.4,861.4v33.3h-6.3v-33.3H1422.4z"/>
		<path class="st20" d="M1067.1,922.4v7.9h10.6v5h-10.6v8.3h11.9v5.1h-18.2v-31.5h18.2v5.1H1067.1z"/>
		<path class="st20" d="M1095.5,915.4v33.3h-6.3v-33.3H1095.5z"/>
		<path class="st20" d="M1129.2,938.2H1111c0.2,1.8,0.8,3.2,1.9,4.2c1.1,1,2.5,1.5,4.1,1.5c2.3,0,4-1,5-3h6.8
			c-0.7,2.4-2.1,4.4-4.1,5.9c-2,1.5-4.5,2.3-7.5,2.3c-2.4,0-4.6-0.5-6.5-1.6c-1.9-1.1-3.4-2.6-4.5-4.5c-1.1-2-1.6-4.2-1.6-6.8
			c0-2.6,0.5-4.8,1.6-6.8c1-2,2.5-3.5,4.4-4.5c1.9-1,4.1-1.6,6.5-1.6c2.4,0,4.5,0.5,6.4,1.5c1.9,1,3.3,2.5,4.4,4.3
			c1,1.9,1.6,4,1.6,6.5C1129.4,936.6,1129.4,937.4,1129.2,938.2z M1122.9,933.9c0-1.6-0.6-2.9-1.8-3.9s-2.5-1.5-4.2-1.5
			c-1.6,0-2.9,0.5-3.9,1.4c-1.1,0.9-1.7,2.3-2,3.9H1122.9z"/>
		<path class="st20" d="M1176.9,926.2c1.9,1.9,2.8,4.5,2.8,7.9v14.6h-6.3V935c0-2-0.5-3.4-1.5-4.5c-1-1-2.3-1.6-4-1.6
			s-3.1,0.5-4.1,1.6c-1,1-1.5,2.5-1.5,4.5v13.8h-6.3V935c0-2-0.5-3.4-1.5-4.5c-1-1-2.3-1.6-4.1-1.6c-1.7,0-3.1,0.5-4.1,1.6
			c-1,1-1.5,2.5-1.5,4.5v13.8h-6.3v-24.9h6.3v3c0.8-1,1.9-1.9,3.1-2.5c1.3-0.6,2.7-0.9,4.2-0.9c1.9,0,3.7,0.4,5.2,1.2
			c1.5,0.8,2.7,2,3.6,3.5c0.8-1.4,2-2.6,3.5-3.5c1.5-0.9,3.2-1.3,5-1.3C1172.5,923.4,1175,924.4,1176.9,926.2z"/>
		<path class="st20" d="M1213.2,938.2h-18.2c0.1,1.8,0.8,3.2,1.9,4.2s2.5,1.5,4.1,1.5c2.3,0,4-1,5-3h6.8c-0.7,2.4-2.1,4.4-4.1,5.9
			s-4.5,2.3-7.5,2.3c-2.4,0-4.6-0.5-6.5-1.6c-1.9-1.1-3.4-2.6-4.5-4.5c-1.1-2-1.6-4.2-1.6-6.8c0-2.6,0.5-4.8,1.6-6.8
			c1.1-2,2.5-3.5,4.4-4.5c1.9-1,4.1-1.6,6.5-1.6c2.4,0,4.5,0.5,6.4,1.5s3.3,2.5,4.4,4.3c1,1.9,1.6,4,1.6,6.5
			C1213.3,936.6,1213.3,937.4,1213.2,938.2z M1206.8,933.9c0-1.6-0.6-2.9-1.8-3.9c-1.1-1-2.5-1.5-4.2-1.5c-1.6,0-2.9,0.5-3.9,1.4
			c-1.1,0.9-1.7,2.3-2,3.9H1206.8z"/>
		<path class="st20" d="M1243.5,926.2c1.8,1.9,2.7,4.5,2.7,7.9v14.6h-6.3V935c0-2-0.5-3.5-1.5-4.6c-1-1.1-2.3-1.6-4.1-1.6
			c-1.7,0-3.1,0.5-4.1,1.6c-1,1.1-1.5,2.6-1.5,4.6v13.8h-6.3v-24.9h6.3v3.1c0.8-1.1,1.9-1.9,3.2-2.5s2.7-0.9,4.3-0.9
			C1239.2,923.4,1241.6,924.4,1243.5,926.2z"/>
		<path class="st20" d="M1264,929V941c0,0.8,0.2,1.4,0.6,1.8s1.1,0.6,2,0.6h2.9v5.3h-4c-5.3,0-8-2.6-8-7.7v-12h-3v-5.2h3v-6.2h6.3
			v6.2h5.6v5.2H1264z"/>
		<path class="st20" d="M1282.7,948c-1.6-0.7-2.9-1.7-3.8-3c-0.9-1.3-1.5-2.7-1.6-4.2h6.3c0.1,1,0.6,1.8,1.4,2.4s1.9,0.9,3.1,0.9
			c1.2,0,2.1-0.2,2.8-0.7c0.7-0.5,1-1.1,1-1.8c0-0.8-0.4-1.4-1.2-1.8s-2.1-0.8-3.9-1.3c-1.9-0.5-3.4-0.9-4.6-1.4
			c-1.2-0.5-2.2-1.2-3.1-2.2c-0.9-1-1.3-2.3-1.3-4c0-1.4,0.4-2.6,1.2-3.8c0.8-1.1,1.9-2,3.4-2.7c1.5-0.7,3.2-1,5.2-1
			c3,0,5.3,0.7,7.1,2.2c1.8,1.5,2.7,3.5,2.9,6h-6c-0.1-1-0.5-1.8-1.2-2.4c-0.7-0.6-1.7-0.9-2.9-0.9c-1.1,0-2,0.2-2.6,0.6
			c-0.6,0.4-0.9,1-0.9,1.8c0,0.8,0.4,1.5,1.3,1.9c0.8,0.4,2.1,0.9,3.9,1.3c1.8,0.5,3.3,0.9,4.5,1.4c1.2,0.5,2.2,1.2,3,2.2
			c0.9,1,1.3,2.3,1.3,4c0,1.4-0.4,2.7-1.2,3.9c-0.8,1.1-1.9,2-3.4,2.7c-1.5,0.6-3.2,1-5.2,1C1286.1,949.1,1284.3,948.8,1282.7,948z"
			/>
	</g>
</g>
<text transform="matrix(1 0 0 1 725.8518 312.6599)" class="st2 st17 st21">1</text>
<text transform="matrix(1 0 0 1 720.8598 799.6589)" class="st2 st17 st21">3</text>
<text transform="matrix(1 0 0 1 841.4631 545.8059)" class="st2 st17 st21">2</text>
<g id="information-management" transform="translate(8464.04 2958)">
	<path id="Path_812" class="st2" d="M-7536-2094.5c-0.1,0.5-0.3,0.9-0.5,1.4c-0.6,1.2-1.8,1.9-3.1,2c-0.2,0-0.5,0-0.7,0h-51.1
		c-2.7,0-3.6-0.7-4.6-3.4v-9.3c0.2-1,0.8-1.8,1.6-2.5c0.5-0.3,1-0.5,1.5-0.8h53.8c0.6,0.2,1.1,0.5,1.6,0.8c0.8,0.6,1.4,1.6,1.5,2.6
		L-7536-2094.5z M-7566-2104.4h-25.8c-1.3,0-1.7,0.4-1.7,1.8v7c0,1.3,0.4,1.8,1.7,1.8h51.7c1.2,0,1.7-0.5,1.7-1.8v-6.9
		c0-1.5-0.4-1.9-1.8-1.9L-7566-2104.4z"/>
	<path id="Path_813" class="st2" d="M-7596-2059.7c0.1-0.2,0.2-0.4,0.2-0.6c0.5-1.5,1.9-2.6,3.5-2.6h51.7c2.7,0,3.6,0.7,4.6,3.4v9.2
		c-0.1,0.4-0.2,0.8-0.4,1.1c-0.5,1.1-1.5,1.9-2.8,2.2h-53.7c-0.6-0.2-1.1-0.5-1.7-0.8c-0.8-0.6-1.3-1.5-1.5-2.5L-7596-2059.7z
		 M-7566-2060.3h-25.9c-1.3,0-1.7,0.5-1.7,1.8v7.1c0,1.3,0.4,1.7,1.6,1.7h51.8c1.2,0,1.6-0.5,1.6-1.7v-7c0-1.5-0.4-1.9-1.8-1.9
		L-7566-2060.3z"/>
	<path id="Path_814" class="st2" d="M-7596-2081.7c0.1-0.2,0.2-0.4,0.2-0.6c0.5-1.6,2-2.7,3.7-2.7c5.4,0,10.7,0,16.1,0
		c2.1,0,3.8,1.7,3.9,3.8c0,2.7,0,5.5,0,8.2c0,2.1-1.7,3.8-3.9,3.9c-5.4,0-10.8,0-16.1,0c-1.6,0-3.1-1.1-3.6-2.7
		c-0.1-0.2-0.2-0.5-0.2-0.7L-7596-2081.7z M-7584-2082.3h-7.7c-1.1,0-1.7,0.5-1.7,1.6c0,2.5,0,4.9,0,7.4c0,1.1,0.5,1.6,1.6,1.6h15.3
		c1.2,0,1.7-0.5,1.7-1.7v-7.3c0-1.2-0.5-1.7-1.7-1.7C-7579-2082.3-7581.5-2082.3-7584-2082.3z"/>
	<path id="Path_815" class="st2" d="M-7536-2080.4c-0.3,0.7-1,1-1.7,1c-10.3,0-20.7,0-31,0c-0.3,0-0.5,0-0.8-0.1
		c-0.6-0.2-0.9-0.7-0.9-1.3c0-0.6,0.4-1.1,0.9-1.2c0.3-0.1,0.6-0.1,0.9-0.1c10.3,0,20.5,0,30.8,0c0.8-0.1,1.5,0.3,1.8,1
		L-7536-2080.4z"/>
	<path id="Path_816" class="st2" d="M-7536-2072.9c-0.3,0.7-1,1-1.7,1c-10.3,0-20.7,0-31,0c-0.3,0-0.5,0-0.8-0.1
		c-0.6-0.2-0.9-0.7-0.9-1.3c0-0.6,0.4-1.1,0.9-1.2c0.3-0.1,0.6-0.1,0.9-0.1c10.3,0,20.5,0,30.8,0c0.8-0.1,1.5,0.3,1.8,1
		L-7536-2072.9z"/>
</g>
</svg>
