<svg xmlns="http://www.w3.org/2000/svg" xmlns:xlink="http://www.w3.org/1999/xlink" width="50" height="50" viewBox="0 0 50 50">
  <defs>
    <clipPath id="clip-path">
      <circle id="Ellipse_6214" data-name="Ellipse 6214" cx="25" cy="25" r="25" transform="translate(14100 7439)" fill="#fff"/>
    </clipPath>
  </defs>
  <g id="video_editing" data-name="video editing" transform="translate(-14100 -7439)" clip-path="url(#clip-path)">
    <g id="Pentool" transform="translate(14108.566 7443.305)">
      <path id="Path_63880" data-name="Path 63880" d="M30.373,8H2.494A1.494,1.494,0,0,0,1,9.494V27.416a1.494,1.494,0,0,0,1.494,1.494h8.961a.5.5,0,1,0,0-1H6.974V25.922H12.45a.5.5,0,1,0,0-1H2V11.983H30.871V27.416a.5.5,0,0,0,1,0V9.494A1.494,1.494,0,0,0,30.373,8ZM5.978,25.922v1.991H2.494a.5.5,0,0,1-.5-.5V25.922ZM2,10.987V9.494a.5.5,0,0,1,.5-.5H5.978v1.991Zm4.978,0V9h3.983v1.991Zm4.978,0V9h3.983v1.991Zm4.978,0V9h3.983v1.991Zm4.978,0V9h3.983v1.991Zm4.978,0V9h3.485a.5.5,0,0,1,.5.5v1.494Z" transform="translate(0)" fill="#1973d1"/>
      <path id="Path_63881" data-name="Path 63881" d="M41.987,46.494a1.494,1.494,0,1,0-1.494,1.494A1.494,1.494,0,0,0,41.987,46.494Zm-1.991,0a.5.5,0,1,1,.5.5A.5.5,0,0,1,40,46.494Z" transform="translate(-19.082 -18.58)" fill="#1973d1"/>
      <path id="Path_63882" data-name="Path 63882" d="M41.429,38.463h-.516a7.5,7.5,0,0,0-5.844-7.306.464.464,0,0,0-.112,0V30.5a.5.5,0,0,0-.5-.5H32.468a.5.5,0,0,0-.5.5v.659a.464.464,0,0,0-.112,0,7.5,7.5,0,0,0-5.844,7.306H25.5a.5.5,0,0,0-.5.5v1.991a.5.5,0,0,0,.5.5h1.991a.5.5,0,0,0,.5-.5V38.961a.5.5,0,0,0-.5-.5h-.48a6.444,6.444,0,0,1,4.961-6.308v.334a.5.5,0,0,0,.5.5h1.991a.5.5,0,0,0,.5-.5v-.334a6.444,6.444,0,0,1,4.96,6.308h-.48a.5.5,0,0,0-.5.5v1.991a.5.5,0,0,0,.5.5h1.991a.5.5,0,0,0,.5-.5V38.961A.5.5,0,0,0,41.429,38.463ZM26.991,40.455H26v-1h1Zm6.97-8.463h-1V31h1Zm6.97,8.463h-1v-1h1Z" transform="translate(-12.052 -11.047)" fill="#1973d1"/>
      <path id="Path_63883" data-name="Path 63883" d="M41.472,45.48h-.305l.777-2.332a.5.5,0,0,0-.035-.4l-2.987-5.476a.518.518,0,0,0-.874,0L35.06,42.75a.5.5,0,0,0-.035.4L35.8,45.48H35.5a.5.5,0,0,0-.5.5v1.494a.5.5,0,0,0,.5.5h5.974a.5.5,0,0,0,.5-.5V45.978A.5.5,0,0,0,41.472,45.48Zm-5.433-2.439,2.446-4.487,2.446,4.487-.814,2.439H38.982v-.5a.5.5,0,0,0-1,0v.5H36.852Zm4.936,3.933H36v-.5h4.978Z" transform="translate(-17.073 -14.579)" fill="#1973d1"/>
      <path id="Path_63884" data-name="Path 63884" d="M28.5,26.97a.5.5,0,0,0,.271-.08l4.6-2.987a.5.5,0,0,0,0-.835l-4.6-2.987A.5.5,0,0,0,28,20.5v5.974A.5.5,0,0,0,28.5,26.97Zm.5-5.555,3.189,2.071L29,25.555Z" transform="translate(-13.558 -6.026)" fill="#1973d1"/>
      <path id="Path_63885" data-name="Path 63885" d="M4.5,39a.5.5,0,1,0,0,1H9.476a.5.5,0,1,0,0-1Z" transform="translate(-1.506 -15.567)" fill="#1973d1"/>
      <path id="Path_63886" data-name="Path 63886" d="M17.5,39a.5.5,0,1,0,0,1H18a.5.5,0,1,0,0-1Z" transform="translate(-8.035 -15.567)" fill="#1973d1"/>
    </g>
  </g>
</svg>
