<svg xmlns="http://www.w3.org/2000/svg" xmlns:xlink="http://www.w3.org/1999/xlink" width="50" height="50" viewBox="0 0 50 50">
  <defs>
    <clipPath id="clip-path">
      <circle id="Ellipse_5946" data-name="Ellipse 5946" cx="25" cy="25" r="25" transform="translate(11589 7085)" fill="#fff"/>
    </clipPath>
  </defs>
  <g id="sales_force" data-name="sales force" transform="translate(-11589 -7085)" clip-path="url(#clip-path)">
    <g id="salesforce" transform="translate(11593 7018.228)">
      <path id="Path_60797" data-name="Path 60797" d="M126.617,245.956a5.023,5.023,0,0,0-.671-.057,1.112,1.112,0,0,0-.718.179.541.541,0,0,0-.221.478.59.59,0,0,0,.074.321.484.484,0,0,0,.143.147h0a1.109,1.109,0,0,0,.724.144,5,5,0,0,0,.667-.089h0Z" transform="translate(-114.598 -155.042)" fill="#00a1e2"/>
      <path id="Path_60798" data-name="Path 60798" d="M311.563,228.942a.777.777,0,0,0-.708.343,2.247,2.247,0,0,0,0,1.982.9.9,0,0,0,1.419,0,1.813,1.813,0,0,0,.233-.993,1.78,1.78,0,0,0-.233-.988A.786.786,0,0,0,311.563,228.942Z" transform="translate(-284.756 -139.498)" fill="#00a1e2"/>
      <path id="Path_60799" data-name="Path 60799" d="M192.674,228.717a.787.787,0,0,0-.707.359,1.424,1.424,0,0,0-.2.583h1.763a1.214,1.214,0,0,0-.163-.583A.767.767,0,0,0,192.674,228.717Z" transform="translate(-175.797 -139.292)" fill="#00a1e2"/>
      <path id="Path_60800" data-name="Path 60800" d="M33.441,80.814a9.087,9.087,0,0,0-3.713.791,7.549,7.549,0,0,0-6.58-3.9,7.473,7.473,0,0,0-5.405,2.319l0,.008a8.28,8.28,0,0,0-14.187,8.3A7.227,7.227,0,0,0,0,94.57a7.155,7.155,0,0,0,7.113,7.191,7.067,7.067,0,0,0,1.463-.152,7.661,7.661,0,0,0,14.242.345,6.716,6.716,0,0,0,8.805-2.77,9.268,9.268,0,1,0,1.818-18.37ZM9.165,91.571c0,.749-.544,1.214-1.418,1.214a2.6,2.6,0,0,1-1.275-.3,2.675,2.675,0,0,1-.243-.147c-.009-.012-.045-.027-.018-.1h0l.172-.479a.07.07,0,0,1,.115-.04c.047.029.083.055.144.091a2.065,2.065,0,0,0,1.126.324c.379,0,.616-.2.616-.473V91.65c0-.295-.364-.407-.783-.536l-.093-.029c-.577-.165-1.194-.4-1.194-1.133v-.015a1.223,1.223,0,0,1,1.36-1.177h.087a2.476,2.476,0,0,1,1.253.337.081.081,0,0,1,.042.1c-.016.044-.162.435-.179.479-.031.082-.116.027-.116.027a2.528,2.528,0,0,0-1.111-.284c-.338,0-.558.18-.558.425v.015c0,.285.374.408.808.548l.075.024c.573.18,1.188.432,1.188,1.125v.015Zm3.586.963s-.092.025-.174.044q-.31.067-.622.121a4.524,4.524,0,0,1-.75.063,2.955,2.955,0,0,1-.655-.067,1.351,1.351,0,0,1-.5-.218,1.024,1.024,0,0,1-.323-.387,1.288,1.288,0,0,1-.113-.564,1.153,1.153,0,0,1,.491-.978,1.585,1.585,0,0,1,.515-.24,2.336,2.336,0,0,1,.608-.078c.155,0,.285,0,.385.011l0,.006s.2.018.407.048v-.1c0-.329-.069-.486-.2-.589a1,1,0,0,0-.611-.16,2.507,2.507,0,0,0-1.076.251.316.316,0,0,1-.041.02.063.063,0,0,1-.081-.04l-.175-.47a.077.077,0,0,1,.022-.1,2.378,2.378,0,0,1,.761-.279,4.071,4.071,0,0,1,.663-.061,1.68,1.68,0,0,1,1.134.342,1.381,1.381,0,0,1,.393,1.091v2.256A.078.078,0,0,1,12.751,92.534Zm1.658.08a.072.072,0,0,1-.071.075h-.655a.072.072,0,0,1-.071-.075V87.339a.071.071,0,0,1,.071-.075h.655a.071.071,0,0,1,.071.075Zm4.1-1.7a.072.072,0,0,1-.072.064l-2.475,0a1.011,1.011,0,0,0,1.133,1.114,2.366,2.366,0,0,0,1.015-.183.072.072,0,0,1,.093.043l.161.453c.032.076.006.1-.021.118a2.564,2.564,0,0,1-1.244.248,2.472,2.472,0,0,1-.9-.145,1.581,1.581,0,0,1-.979-1.04,2.652,2.652,0,0,1-.112-.79,2.785,2.785,0,0,1,.108-.788,1.79,1.79,0,0,1,.335-.642,1.626,1.626,0,0,1,.569-.434,1.944,1.944,0,0,1,.816-.158,1.8,1.8,0,0,1,.708.144,1.444,1.444,0,0,1,.47.357,1.548,1.548,0,0,1,.316.578h0A2.642,2.642,0,0,1,18.505,90.914Zm2.042,1.869a2.605,2.605,0,0,1-1.275-.3,2.646,2.646,0,0,1-.243-.147c-.009-.012-.045-.027-.018-.1h0l.172-.479a.074.074,0,0,1,.115-.04c.047.03.083.055.144.091a2.062,2.062,0,0,0,1.126.324c.379,0,.616-.2.616-.473v-.015c0-.295-.362-.407-.783-.536l-.093-.029c-.577-.165-1.194-.4-1.194-1.133v-.015a1.223,1.223,0,0,1,1.36-1.177h.087a2.476,2.476,0,0,1,1.253.337.081.081,0,0,1,.042.1c-.014.044-.16.435-.177.479-.031.082-.116.027-.116.027a2.532,2.532,0,0,0-1.111-.284c-.338,0-.558.18-.558.425v.015c0,.285.374.408.808.548l.075.024c.575.18,1.188.432,1.188,1.125v.015C21.965,92.318,21.421,92.784,20.547,92.784Zm4.326-3.342a.083.083,0,0,1-.083.072h-.814l-.557,3.151a4.713,4.713,0,0,1-.217.83,1.639,1.639,0,0,1-.321.553,1.135,1.135,0,0,1-.457.319,1.806,1.806,0,0,1-.607.094,1.491,1.491,0,0,1-.362-.034,1.849,1.849,0,0,1-.226-.066.074.074,0,0,1-.038-.1c.017-.05.163-.45.183-.5a.068.068,0,0,1,.089-.04.6.6,0,0,0,.133.043,1.128,1.128,0,0,0,.2.022.915.915,0,0,0,.291-.042.458.458,0,0,0,.226-.175,1.249,1.249,0,0,0,.172-.351,3.884,3.884,0,0,0,.148-.609l.554-3.093h-.546c-.066,0-.087-.03-.081-.08l.092-.514a.083.083,0,0,1,.083-.072H23.3l.03-.168a2.043,2.043,0,0,1,.5-1.121,1.415,1.415,0,0,1,1.047-.376,1.913,1.913,0,0,1,.336.026,2.076,2.076,0,0,1,.244.058.066.066,0,0,1,.045.086l-.189.519c-.016.039-.027.063-.107.038-.02-.006-.05-.015-.126-.031a1.027,1.027,0,0,0-.2-.021.86.86,0,0,0-.265.038.513.513,0,0,0-.207.129.718.718,0,0,0-.173.264,3.356,3.356,0,0,0-.13.557h.79c.066,0,.087.03.081.08Zm3.607,2.119a1.767,1.767,0,0,1-.332.635,1.573,1.573,0,0,1-.561.423,2.075,2.075,0,0,1-1.565,0,1.579,1.579,0,0,1-.561-.423,1.76,1.76,0,0,1-.332-.635,2.92,2.92,0,0,1,0-1.57,1.769,1.769,0,0,1,.332-.634,1.61,1.61,0,0,1,.561-.426,2.036,2.036,0,0,1,1.567,0,1.59,1.59,0,0,1,.561.426,1.764,1.764,0,0,1,.332.634h0a2.924,2.924,0,0,1,0,1.57Zm3.029-2.593,0-.01c-.023.067-.144.406-.186.519-.016.043-.043.072-.09.067a1.392,1.392,0,0,0-.271-.033,1.2,1.2,0,0,0-.332.047.752.752,0,0,0-.306.183.93.93,0,0,0-.216.364,2.167,2.167,0,0,0-.082.649V92.6a.075.075,0,0,1-.075.075H29.3a.075.075,0,0,1-.075-.075V88.919a.072.072,0,0,1,.071-.075h.633a.071.071,0,0,1,.071.075v.3a1.094,1.094,0,0,1,.417-.309,1.225,1.225,0,0,1,.638-.1,2.166,2.166,0,0,1,.414.07h0A.067.067,0,0,1,31.509,88.968Zm3.122,3.61a2.959,2.959,0,0,1-1.034.185,1.844,1.844,0,0,1-1.441-.542,2.1,2.1,0,0,1-.486-1.454,2.523,2.523,0,0,1,.119-.786,1.809,1.809,0,0,1,.356-.634,1.682,1.682,0,0,1,.588-.426,1.986,1.986,0,0,1,.813-.156,3.67,3.67,0,0,1,.548.037,2.835,2.835,0,0,1,.487.123.066.066,0,0,1,.046.086c-.069.194-.116.321-.18.5-.027.075-.085.05-.085.05a2.451,2.451,0,0,0-.772-.11.955.955,0,0,0-.81.357,1.55,1.55,0,0,0-.28.962,1.392,1.392,0,0,0,.313,1,1.111,1.111,0,0,0,.835.313,2.594,2.594,0,0,0,.4-.029,1.677,1.677,0,0,0,.34-.1A.069.069,0,0,1,34.48,92h0l.18.5A.066.066,0,0,1,34.631,92.578Zm3.663-1.664a.072.072,0,0,1-.072.064l-2.475,0a1.011,1.011,0,0,0,1.133,1.114,2.366,2.366,0,0,0,1.015-.183.072.072,0,0,1,.093.043l.161.453c.032.076.006.1-.021.118a2.564,2.564,0,0,1-1.244.248,2.478,2.478,0,0,1-.9-.145,1.588,1.588,0,0,1-.981-1.04,2.665,2.665,0,0,1-.112-.79A2.779,2.779,0,0,1,35,90.006a1.785,1.785,0,0,1,.335-.642,1.626,1.626,0,0,1,.569-.434,1.944,1.944,0,0,1,.816-.158,1.8,1.8,0,0,1,.708.144,1.444,1.444,0,0,1,.47.357,1.55,1.55,0,0,1,.316.578h0A2.643,2.643,0,0,1,38.295,90.914Z" transform="translate(0 0)" fill="#00a1e2"/>
      <path id="Path_60801" data-name="Path 60801" d="M430.293,228.717a.787.787,0,0,0-.707.359,1.421,1.421,0,0,0-.2.583h1.762a1.211,1.211,0,0,0-.163-.583A.767.767,0,0,0,430.293,228.717Z" transform="translate(-393.628 -139.292)" fill="#00a1e2"/>
    </g>
  </g>
</svg>
