<svg xmlns="http://www.w3.org/2000/svg" xmlns:xlink="http://www.w3.org/1999/xlink" width="50" height="50" viewBox="0 0 50 50">
  <defs>
    <clipPath id="clip-path">
      <circle id="Ellipse_5909" data-name="Ellipse 5909" cx="25" cy="25" r="25" transform="translate(12315 6918)" fill="#fff"/>
    </clipPath>
  </defs>
  <g id="Docker" transform="translate(-12315 -6918)" clip-path="url(#clip-path)">
    <g id="docker-2" data-name="docker" transform="translate(12318.999 6855.681)">
      <path id="Path_60785" data-name="Path 60785" d="M42.546,148.76a5.72,5.72,0,0,0-3.5-.914,10.771,10.771,0,0,0-1.81.156,6.753,6.753,0,0,0-3.073-4.595l-.613-.355-.4.583a8.331,8.331,0,0,0-1.095,2.562,6.064,6.064,0,0,0,.722,4.763,8.379,8.379,0,0,1-3.121.752H1.343A1.341,1.341,0,0,0,0,153.048a20.391,20.391,0,0,0,1.239,7.271,10.787,10.787,0,0,0,4.312,5.593c2.117,1.293,5.551,2.033,9.448,2.033a28.347,28.347,0,0,0,5.244-.475,21.714,21.714,0,0,0,6.844-2.49,18.959,18.959,0,0,0,4.673-3.825,25.975,25.975,0,0,0,4.571-7.878h.4a6.594,6.594,0,0,0,4.8-1.8,5.175,5.175,0,0,0,1.263-1.876l.174-.517Z" transform="translate(0 -64.798)" fill="#2496ed"/>
      <path id="Path_60786" data-name="Path 60786" d="M43.635,192.244H47.43a.334.334,0,0,0,.331-.331h0v-3.38a.33.33,0,0,0-.331-.331H43.635a.334.334,0,0,0-.331.331h0v3.38a.334.334,0,0,0,.331.331h0" transform="translate(-39.669 -106.159)" fill="#2496ed"/>
      <path id="Path_60787" data-name="Path 60787" d="M105.913,192.244h3.795a.334.334,0,0,0,.331-.331h0v-3.38a.33.33,0,0,0-.331-.331h-3.795a.33.33,0,0,0-.331.331v3.38a.334.334,0,0,0,.331.331" transform="translate(-96.721 -106.159)" fill="#2496ed"/>
      <path id="Path_60788" data-name="Path 60788" d="M169.194,192.244h3.795a.334.334,0,0,0,.331-.331h0v-3.38a.33.33,0,0,0-.331-.331h-3.795a.334.334,0,0,0-.331.331h0v3.38a.33.33,0,0,0,.331.331h0" transform="translate(-154.692 -106.159)" fill="#2496ed"/>
      <path id="Path_60789" data-name="Path 60789" d="M231.687,192.244h3.795a.334.334,0,0,0,.331-.331v-3.38a.33.33,0,0,0-.331-.331h-3.795a.334.334,0,0,0-.331.331h0v3.38a.33.33,0,0,0,.331.331h0" transform="translate(-211.94 -106.159)" fill="#2496ed"/>
      <path id="Path_60790" data-name="Path 60790" d="M105.913,134.337h3.795a.334.334,0,0,0,.331-.331v-3.38a.334.334,0,0,0-.331-.331h-3.795a.334.334,0,0,0-.331.331v3.38a.334.334,0,0,0,.331.331" transform="translate(-96.721 -53.112)" fill="#2496ed"/>
      <path id="Path_60791" data-name="Path 60791" d="M169.194,134.337h3.795a.334.334,0,0,0,.331-.331v-3.38a.334.334,0,0,0-.331-.331h-3.795a.334.334,0,0,0-.331.331h0v3.38a.33.33,0,0,0,.331.331" transform="translate(-154.692 -53.112)" fill="#2496ed"/>
      <path id="Path_60792" data-name="Path 60792" d="M231.687,134.337h3.795a.33.33,0,0,0,.331-.331v-3.38a.334.334,0,0,0-.331-.331h-3.795a.334.334,0,0,0-.331.331h0v3.38a.33.33,0,0,0,.331.331" transform="translate(-211.94 -53.112)" fill="#2496ed"/>
      <path id="Path_60793" data-name="Path 60793" d="M231.687,76.36h3.795a.334.334,0,0,0,.331-.331V72.65a.334.334,0,0,0-.331-.331h-3.795a.334.334,0,0,0-.331.331h0v3.38a.326.326,0,0,0,.331.331" transform="translate(-211.94)" fill="#2496ed"/>
      <path id="Path_60794" data-name="Path 60794" d="M294.681,192.244h3.795a.334.334,0,0,0,.331-.331v-3.38a.33.33,0,0,0-.331-.331h-3.795a.334.334,0,0,0-.331.331h0v3.38a.334.334,0,0,0,.331.331" transform="translate(-269.648 -106.159)" fill="#2496ed"/>
    </g>
  </g>
</svg>
