<svg xmlns="http://www.w3.org/2000/svg" xmlns:xlink="http://www.w3.org/1999/xlink" width="50" height="50" viewBox="0 0 50 50">
  <defs>
    <clipPath id="clip-path">
      <circle id="Ellipse_5925" data-name="Ellipse 5925" cx="25" cy="25" r="25" transform="translate(12415 6636)" fill="#fff"/>
    </clipPath>
  </defs>
  <g id="Github" transform="translate(-12415 -6636)" clip-path="url(#clip-path)">
    <path id="github-2" data-name="github" d="M24.7.5A24.485,24.485,0,0,0,0,24.771,24.312,24.312,0,0,0,16.888,47.8c1.235.228,1.688-.523,1.688-1.167,0-.576-.021-2.1-.031-4.127-6.871,1.463-8.32-3.256-8.32-3.256C9.1,36.448,7.478,35.7,7.478,35.7c-2.237-1.5.173-1.474.173-1.474a5.167,5.167,0,0,1,3.783,2.5c2.2,3.711,5.782,2.639,7.194,2.019A5.139,5.139,0,0,1,20.192,35.5c-5.485-.607-11.25-2.694-11.25-11.994a9.273,9.273,0,0,1,2.542-6.512,8.492,8.492,0,0,1,.216-6.424s2.069-.65,6.792,2.488a23.682,23.682,0,0,1,12.35,0c4.693-3.139,6.761-2.488,6.761-2.488a8.726,8.726,0,0,1,.247,6.424,9.31,9.31,0,0,1,2.532,6.512c0,9.324-5.773,11.376-11.269,11.973a5.759,5.759,0,0,1,1.667,4.491c0,3.248-.031,5.858-.031,6.646,0,.636.432,1.4,1.7,1.153a24.238,24.238,0,0,0,16.952-23A24.489,24.489,0,0,0,24.7.5Z" transform="translate(12415.301 6636.5)"/>
  </g>
</svg>
